<svg width="456" height="639" viewBox="0 0 456 639" fill="none" xmlns="http://www.w3.org/2000/svg">
<path d="M124.471 235.892L7.74619 322.449C5.38789 324.204 3.48157 326.497 2.18517 329.138C0.888776 331.778 0.239593 334.689 0.291454 337.631C0.343316 340.572 1.0947 343.458 2.48337 346.051C3.87204 348.644 5.85801 350.868 8.27674 352.54L417.698 634.512C419.924 636.058 422.433 637.147 425.082 637.717C427.73 638.286 430.465 638.326 433.129 637.832C435.793 637.338 438.332 636.321 440.601 634.84C442.87 633.359 444.824 631.443 446.349 629.202C448.628 625.785 449.913 621.802 450.063 617.696L455.545 151.637C455.566 148.698 454.906 145.794 453.617 143.153C452.329 140.511 450.446 138.205 448.117 136.414L408.502 105.792C406.541 104.265 404.298 103.14 401.902 102.482C399.506 101.824 397.004 101.647 394.54 101.959C392.075 102.272 389.696 103.068 387.539 104.303C385.383 105.538 383.491 107.187 381.973 109.155C379.313 112.453 377.931 116.601 378.082 120.838L379.674 516.625L154.36 355.549C152.379 354.136 150.698 352.345 149.412 350.279C148.126 348.213 147.261 345.913 146.866 343.511C146.472 341.109 146.556 338.653 147.113 336.284C147.671 333.915 148.691 331.679 150.115 329.706C151.094 328.399 152.222 327.211 153.475 326.166L187.078 298.73C190.865 295.623 193.269 291.142 193.766 286.267C194.263 281.392 192.812 276.518 189.731 272.71C189.37 272.195 188.955 271.72 188.493 271.294L155.421 238.193C151.399 234.152 146.058 231.695 140.374 231.273C134.691 230.85 129.045 232.49 124.471 235.892Z" fill="#546CFF" fill-opacity="0.4"/>
<path d="M338.466 74.8155L168.861 202.438C165.703 204.814 163.613 208.346 163.05 212.26C162.487 216.174 163.495 220.152 165.854 223.324C166.095 223.72 166.393 224.078 166.739 224.386L207.769 270.231C209.978 272.697 213.06 274.206 216.361 274.437C219.662 274.669 222.924 273.604 225.455 271.47L264.186 238.37C265.591 237.172 267.218 236.262 268.974 235.694C270.73 235.125 272.58 234.909 274.42 235.057C276.26 235.205 278.052 235.714 279.695 236.556C281.338 237.398 282.799 238.556 283.994 239.963C286.286 242.607 287.487 246.024 287.354 249.521L284.171 341.211C284.037 344.844 282.476 348.276 279.826 350.763C277.176 353.249 273.653 354.587 270.023 354.487C266.887 354.393 263.884 353.203 261.533 351.124L242.787 334.485C241.394 333.252 239.772 332.305 238.013 331.7C236.254 331.095 234.394 330.843 232.538 330.958C230.682 331.073 228.866 331.553 227.196 332.371C225.525 333.189 224.032 334.328 222.802 335.724L222.625 335.901L213.429 346.875C211.03 349.77 209.871 353.495 210.202 357.24C210.533 360.986 212.328 364.449 215.197 366.877C215.374 367.054 215.728 367.231 215.905 367.408L333.337 453.08C334.939 454.291 336.763 455.173 338.706 455.678C340.649 456.182 342.673 456.298 344.66 456.018C346.648 455.739 348.561 455.069 350.29 454.049C352.019 453.028 353.53 451.676 354.737 450.07C356.696 447.403 357.75 444.177 357.743 440.866V158.54C357.75 156.655 357.384 154.788 356.667 153.045C355.949 151.302 354.895 149.719 353.563 148.386C352.231 147.053 350.649 145.997 348.908 145.279C347.167 144.561 345.301 144.195 343.418 144.202C340.126 144.146 336.925 145.277 334.398 147.388L238.896 225.626C237.61 226.689 236.126 227.487 234.529 227.974C232.933 228.461 231.257 228.627 229.596 228.463C227.936 228.298 226.324 227.806 224.855 227.016C223.385 226.225 222.086 225.151 221.033 223.855C220.857 223.678 220.68 223.324 220.503 223.147C218.253 219.954 217.327 216.012 217.921 212.15C218.515 208.288 220.581 204.806 223.686 202.438L358.097 101.544C360.766 99.5171 362.636 96.6145 363.38 93.3453C364.124 90.0761 363.693 86.6492 362.164 83.6659L360.219 79.7717C358.52 76.355 355.54 73.7492 351.928 72.5223C348.317 71.2955 344.368 71.5472 340.942 73.2225C339.881 73.9305 339.173 74.2845 338.466 74.8155Z" fill="#546CFF" fill-opacity="0.4"/>
<path d="M392.232 35.6969L435.738 3.12756C438.365 1.15587 441.667 0.309262 444.917 0.773995C448.167 1.23873 451.1 2.97673 453.07 5.60566C454.671 7.75397 455.539 10.3603 455.546 13.04V79.9486C455.546 83.2348 454.242 86.3863 451.92 88.71C449.598 91.0337 446.45 92.3391 443.166 92.3391C440.407 92.3272 437.73 91.3927 435.561 89.684L392.055 56.0527C389.37 53.9554 387.621 50.881 387.19 47.4992C386.76 44.1174 387.682 40.7023 389.756 37.9979C390.536 37.184 391.363 36.4157 392.232 35.6969Z" fill="#546CFF" fill-opacity="0.4"/>
</svg>
