<svg width="41" height="56" viewBox="0 0 41 56" fill="none" xmlns="http://www.w3.org/2000/svg">
<path d="M11.0791 20.6635L0.66534 28.2665C0.454942 28.4208 0.284867 28.6222 0.169207 28.8541C0.0535476 29.086 -0.00436993 29.3417 0.000256958 29.6001C0.00488384 29.8585 0.0719198 30.112 0.195811 30.3398C0.319703 30.5675 0.496883 30.7629 0.712673 30.9097L37.2397 55.678C37.4382 55.8137 37.6621 55.9094 37.8984 55.9594C38.1347 56.0095 38.3787 56.0129 38.6163 55.9696C38.854 55.9262 39.0806 55.8369 39.283 55.7068C39.4854 55.5767 39.6597 55.4083 39.7958 55.2115C39.9991 54.9114 40.1138 54.5615 40.1271 54.2009L40.6162 13.2625C40.6181 13.0044 40.5592 12.7493 40.4442 12.5173C40.3293 12.2853 40.1613 12.0827 39.9535 11.9254L36.4192 9.23557C36.2443 9.10141 36.0442 9.00261 35.8304 8.94483C35.6167 8.88706 35.3934 8.87145 35.1735 8.89889C34.9536 8.92634 34.7414 8.99631 34.549 9.10478C34.3566 9.21325 34.1879 9.35809 34.0524 9.53099C33.8151 9.82068 33.6918 10.1851 33.7053 10.5572L33.8473 45.3229L13.7456 31.174C13.569 31.0499 13.4189 30.8926 13.3042 30.7111C13.1895 30.5297 13.1123 30.3276 13.0771 30.1166C13.0419 29.9057 13.0494 29.6899 13.0991 29.4818C13.1489 29.2737 13.2399 29.0773 13.3669 28.904C13.4543 28.7893 13.5549 28.6849 13.6667 28.593L16.6646 26.1831C17.0025 25.9102 17.217 25.5166 17.2613 25.0884C17.3056 24.6601 17.1762 24.232 16.9013 23.8975C16.8691 23.8523 16.8321 23.8106 16.7909 23.7731L13.8403 20.8656C13.4815 20.5106 13.005 20.2948 12.4979 20.2577C11.9908 20.2206 11.4872 20.3646 11.0791 20.6635Z" fill="#EAEEFF"/>
<path d="M30.1714 6.51445L15.0399 17.7247C14.7581 17.9334 14.5717 18.2436 14.5214 18.5875C14.4712 18.9313 14.5611 19.2807 14.7716 19.5594C14.7931 19.5941 14.8197 19.6256 14.8505 19.6527L18.5111 23.6796C18.7082 23.8963 18.9831 24.0288 19.2777 24.0491C19.5722 24.0694 19.8632 23.9759 20.089 23.7885L23.5444 20.881C23.6697 20.7757 23.8149 20.6958 23.9715 20.6459C24.1282 20.596 24.2933 20.5769 24.4575 20.5899C24.6216 20.6029 24.7815 20.6477 24.9281 20.7216C25.0746 20.7956 25.205 20.8973 25.3116 21.0209C25.5161 21.2531 25.6232 21.5533 25.6114 21.8605L25.3274 29.9144C25.3154 30.2335 25.1761 30.5351 24.9397 30.7534C24.7034 30.9718 24.389 31.0894 24.0651 31.0806C23.7854 31.0723 23.5174 30.9678 23.3078 30.7851L21.6352 29.3236C21.511 29.2153 21.3663 29.1322 21.2094 29.079C21.0525 29.0259 20.8865 29.0037 20.7209 29.0138C20.5553 29.0239 20.3933 29.0661 20.2443 29.1379C20.0952 29.2098 19.962 29.3098 19.8523 29.4325L19.8365 29.448L19.016 30.412C18.8021 30.6662 18.6986 30.9934 18.7281 31.3224C18.7577 31.6515 18.9179 31.9557 19.1738 32.1689C19.1896 32.1845 19.2212 32.2 19.2369 32.2156L29.7138 39.7409C29.8567 39.8473 30.0195 39.9248 30.1928 39.9691C30.3662 40.0134 30.5467 40.0236 30.724 39.999C30.9014 39.9745 31.0721 39.9157 31.2263 39.826C31.3806 39.7364 31.5154 39.6176 31.623 39.4766C31.7978 39.2423 31.8918 38.9589 31.8912 38.6681V13.8687C31.8918 13.7032 31.8592 13.5391 31.7952 13.3861C31.7312 13.233 31.6371 13.0939 31.5183 12.9768C31.3995 12.8598 31.2583 12.767 31.103 12.7039C30.9476 12.6409 30.7812 12.6087 30.6132 12.6093C30.3195 12.6044 30.0339 12.7037 29.8085 12.8892L21.2881 19.7615C21.1734 19.8549 21.041 19.925 20.8986 19.9678C20.7562 20.0106 20.6066 20.0252 20.4585 20.0107C20.3103 19.9963 20.1665 19.9531 20.0354 19.8836C19.9043 19.8141 19.7884 19.7198 19.6945 19.606C19.6787 19.5905 19.6629 19.5594 19.6472 19.5438C19.4464 19.2633 19.3639 18.917 19.4168 18.5778C19.4698 18.2386 19.6542 17.9328 19.9312 17.7247L31.9228 8.86223C32.1609 8.68422 32.3277 8.42926 32.3941 8.1421C32.4605 7.85493 32.4221 7.55391 32.2857 7.29186L32.1121 6.9498C31.9605 6.64968 31.6946 6.42078 31.3724 6.31302C31.0503 6.20526 30.6979 6.22736 30.3923 6.37452C30.2976 6.43671 30.2345 6.46781 30.1714 6.51445Z" fill="#EAEEFF"/>
<path d="M34.9668 3.07854L38.8483 0.217679C39.0827 0.0444864 39.3772 -0.0298787 39.6672 0.0109431C39.9572 0.051765 40.2189 0.20443 40.3946 0.435353C40.5374 0.624059 40.6148 0.852993 40.6155 1.08838V6.96558C40.6155 7.25424 40.4991 7.53107 40.292 7.73518C40.0849 7.93929 39.804 8.05395 39.511 8.05395C39.2648 8.05291 39.026 7.97082 38.8325 7.82073L34.9511 4.86658C34.7115 4.68236 34.5555 4.4123 34.5171 4.11525C34.4786 3.8182 34.5609 3.51822 34.7459 3.28067C34.8156 3.20917 34.8893 3.14168 34.9668 3.07854Z" fill="#EAEEFF"/>
</svg>
