<svg width="45" height="75" viewBox="0 0 45 75" fill="none" xmlns="http://www.w3.org/2000/svg">
<path d="M12.4481 27.6986L12.4475 27.6991L1.0593 37.7521C1.05912 37.7522 1.05894 37.7524 1.05876 37.7526C0.890212 37.9021 0.746993 38.1038 0.647277 38.3455L0.186415 38.1554L0.647276 38.3455C0.547461 38.5875 0.496141 38.8581 0.500226 39.1339C0.504312 39.4097 0.563602 39.6775 0.670124 39.9142C0.776645 40.151 0.925187 40.3455 1.09707 40.4869L41.0441 73.238L41.0457 73.2393C41.2093 73.3746 41.3885 73.4656 41.5716 73.5125C41.7543 73.5593 41.9417 73.5624 42.125 73.522C42.3085 73.4815 42.489 73.397 42.655 73.268C42.8207 73.1391 42.9689 72.9683 43.0873 72.7617C43.2671 72.4401 43.3721 72.0592 43.385 71.6612L43.9199 17.5348C43.9199 17.5345 43.9199 17.5342 43.9199 17.5338C43.9214 17.2568 43.8689 16.9855 43.7691 16.742C43.6692 16.4981 43.5263 16.293 43.3575 16.1385L43.3565 16.1376L39.4912 12.5808L39.4898 12.5795C39.3482 12.4481 39.1915 12.3562 39.0306 12.3036C38.87 12.2512 38.7046 12.2375 38.5421 12.262C38.3793 12.2866 38.2175 12.3498 38.0661 12.453C37.9144 12.5565 37.7755 12.6986 37.661 12.8753L37.6554 12.884L37.6553 12.884C37.4585 13.1743 37.3497 13.5513 37.3615 13.9454L37.3619 13.9587L37.3617 13.9587L37.517 59.9302L37.5207 61.0171L36.693 60.3127L14.7092 41.6036L12.4481 27.6986ZM12.4481 27.6986C12.7997 27.3873 13.217 27.2496 13.6242 27.2857C14.0328 27.3218 14.4363 27.5335 14.7528 27.9122L14.7534 27.9129L17.9803 31.7576L17.9867 31.7652L17.9933 31.7725C18.0146 31.7958 18.0349 31.8232 18.0534 31.8545L18.0615 31.8684L18.0706 31.8817C18.3024 32.2228 18.419 32.6732 18.3796 33.1327C18.3403 33.5922 18.1509 33.9964 17.8762 34.2649C17.8761 34.265 17.876 34.2651 17.8759 34.2652L14.5981 37.4511L14.5981 37.4511L14.5943 37.4549C14.444 37.6041 14.3105 37.772 14.1956 37.9545L14.1956 37.9544M12.4481 27.6986L14.1956 37.9544M14.1956 37.9544L14.1912 37.9616M14.1956 37.9544L14.1912 37.9616M14.1912 37.9616C14.0205 38.2431 13.9005 38.5581 13.8353 38.8879C13.7701 39.2178 13.7604 39.5589 13.8064 39.8927C13.8525 40.2264 13.9538 40.5491 14.107 40.8421C14.2602 41.135 14.4635 41.3948 14.7088 41.6033L14.1912 37.9616Z" fill="black" stroke="black"/>
<path d="M16.5899 25.6172L16.5997 25.6364C16.6027 25.6421 16.6049 25.6445 16.6049 25.6445L16.6238 25.6647L16.6404 25.6868L20.6437 31.0116C20.6437 31.0116 20.6438 31.0117 20.6438 31.0117C20.7841 31.198 20.9605 31.2888 21.1241 31.3025C21.2857 31.3159 21.4621 31.2567 21.6145 31.1043C21.6149 31.1039 21.6152 31.1036 21.6156 31.1032L25.3923 27.261L25.3926 27.2606C25.5763 27.0741 25.7943 26.9273 26.0362 26.8341C26.2785 26.7407 26.5369 26.7042 26.795 26.7289L26.7474 27.2266L26.795 26.7289C27.053 26.7536 27.3003 26.8384 27.5224 26.9739C27.7436 27.1088 27.9343 27.2905 28.0872 27.5041C28.3798 27.9071 28.5252 28.4138 28.5092 28.9218L28.5092 28.9213L28.0094 28.9067L28.5091 28.9226L16.5899 25.6172ZM16.5899 25.6172L16.5785 25.5989M16.5899 25.6172L16.5785 25.5989M16.5785 25.5989C16.4123 25.3329 16.3352 24.9866 16.3773 24.6387C16.4193 24.2907 16.5736 23.9965 16.7815 23.8103L33.3295 8.98712C33.3439 8.97428 33.3608 8.96114 33.3985 8.93368C33.4028 8.93057 33.4073 8.92728 33.4121 8.92383C33.4397 8.90377 33.4752 8.87799 33.5158 8.84669C33.7122 8.74185 33.9253 8.7317 34.1225 8.81146C34.3343 8.89712 34.5358 9.09135 34.6575 9.38272L34.6578 9.38344L34.8476 9.83575L34.8476 9.83576L34.8494 9.84C34.9581 10.0923 34.9905 10.3886 34.9362 10.6727C34.8819 10.9565 34.7485 11.192 34.5774 11.3471C34.5771 11.3473 34.5768 11.3476 34.5765 11.3479L21.4641 23.065L21.464 23.065L21.4611 23.0677C21.0608 23.4312 20.8102 23.9488 20.7388 24.5019C20.6674 25.0552 20.7771 25.6262 21.0563 26.098L21.0772 26.1333M16.5785 25.5989L21.0772 26.1333M21.3192 42.1809C21.3261 42.1864 21.3378 42.1958 21.3497 42.2062C21.3578 42.2131 21.3694 42.2235 21.3828 42.2368L32.8238 52.1729L32.8305 52.1787L32.8304 52.1787C32.9361 52.2738 33.0512 52.3385 33.1674 52.3744C33.2833 52.4102 33.4019 52.418 33.5182 52.3985C33.6349 52.379 33.7521 52.3315 33.8627 52.2538L34.1501 52.6629L33.8627 52.2538C33.973 52.1763 34.0751 52.0697 34.1597 51.9362M21.3192 42.1809L34.1597 51.9362M21.3192 42.1809C21.1341 41.9919 21.0044 41.7075 20.9801 41.3814C20.9558 41.0534 21.0425 40.7368 21.206 40.5013C21.2062 40.5009 21.2065 40.5006 21.2067 40.5002L21.3192 42.1809ZM34.1597 51.9362C34.1593 51.9369 34.1588 51.9376 34.1584 51.9383L34.5839 52.2008L34.1611 51.934C34.1606 51.9347 34.1602 51.9355 34.1597 51.9362ZM21.0772 26.1333L21.082 26.139M21.0772 26.1333L21.082 26.139M21.082 26.139C21.0863 26.1467 21.0923 26.157 21.0987 26.1674C21.1041 26.1764 21.1114 26.1879 21.1201 26.2005C21.1241 26.2064 21.1289 26.2131 21.1343 26.2203C21.2708 26.4169 21.442 26.5858 21.6416 26.7136C21.8458 26.8445 22.0748 26.9289 22.3153 26.9572C22.556 26.9856 22.798 26.9567 23.0259 26.8739C23.2529 26.7915 23.4578 26.6586 23.631 26.4884C23.6313 26.4881 23.6317 26.4878 23.632 26.4875L21.082 26.139ZM23.2982 39.1195L23.6609 38.7754L23.2977 39.1191L23.2979 39.1192C23.298 39.1193 23.2981 39.1194 23.2982 39.1195ZM22.0903 39.245L22.0936 39.2404L22.1025 39.2276L21.9527 39.1222L21.6937 38.9398L22.0767 39.2613L22.0903 39.245Z" fill="black" stroke="black"/>
<path d="M42.8199 0.661124L42.8204 0.660675C42.9721 0.525094 43.1432 0.480886 43.2989 0.507381C43.4579 0.534435 43.6281 0.64052 43.7548 0.841463C43.8582 1.00698 43.9193 1.21682 43.9199 1.43982V9.21074C43.9199 9.48538 43.8276 9.73485 43.6831 9.90695C43.5412 10.076 43.3696 10.1495 43.2133 10.1499C43.0808 10.1489 42.9389 10.0959 42.812 9.97686L42.8121 9.97684L42.8085 9.9736L38.5654 6.06899C38.5652 6.06875 38.5649 6.0685 38.5646 6.06826C38.4007 5.91541 38.2781 5.67445 38.2475 5.3885C38.2179 5.1117 38.2799 4.83967 38.4078 4.63001C38.4642 4.56134 38.5233 4.49642 38.5846 4.43542L42.8199 0.661124Z" fill="black" stroke="black"/>
</svg>
