<svg width="74" height="66" viewBox="0 0 74 66" fill="none" xmlns="http://www.w3.org/2000/svg">
<g filter="url(#filter0_d_102_1996)">
<path d="M36.9976 56.9435C57.4167 56.9435 67.6201 45.0756 67.6201 30.4359C67.6201 15.7961 57.4167 3.92822 36.9976 3.92822C16.5784 3.92822 6.375 15.7961 6.375 30.4359C6.375 45.0756 16.5784 56.9435 36.9976 56.9435Z" fill="url(#paint0_radial_102_1996)"/>
<path d="M36.9976 56.9435C57.4167 56.9435 67.6201 45.0756 67.6201 30.4359C67.6201 15.7961 57.4167 3.92822 36.9976 3.92822C16.5784 3.92822 6.375 15.7961 6.375 30.4359C6.375 45.0756 16.5784 56.9435 36.9976 56.9435Z" fill="url(#paint1_radial_102_1996)"/>
<path d="M36.9976 56.9435C57.4167 56.9435 67.6201 45.0756 67.6201 30.4359C67.6201 15.7961 57.4167 3.92822 36.9976 3.92822C16.5784 3.92822 6.375 15.7961 6.375 30.4359C6.375 45.0756 16.5784 56.9435 36.9976 56.9435Z" fill="url(#paint2_radial_102_1996)"/>
<path d="M36.9976 56.9435C57.4167 56.9435 67.6201 45.0756 67.6201 30.4359C67.6201 15.7961 57.4167 3.92822 36.9976 3.92822C16.5784 3.92822 6.375 15.7961 6.375 30.4359C6.375 45.0756 16.5784 56.9435 36.9976 56.9435Z" fill="url(#paint3_radial_102_1996)" fill-opacity="0.6"/>
<path d="M36.9976 56.9435C57.4167 56.9435 67.6201 45.0756 67.6201 30.4359C67.6201 15.7961 57.4167 3.92822 36.9976 3.92822C16.5784 3.92822 6.375 15.7961 6.375 30.4359C6.375 45.0756 16.5784 56.9435 36.9976 56.9435Z" fill="url(#paint4_radial_102_1996)"/>
<path d="M36.9976 56.9435C57.4167 56.9435 67.6201 45.0756 67.6201 30.4359C67.6201 15.7961 57.4167 3.92822 36.9976 3.92822C16.5784 3.92822 6.375 15.7961 6.375 30.4359C6.375 45.0756 16.5784 56.9435 36.9976 56.9435Z" fill="url(#paint5_radial_102_1996)"/>
<path d="M36.9976 56.9435C57.4167 56.9435 67.6201 45.0756 67.6201 30.4359C67.6201 15.7961 57.4167 3.92822 36.9976 3.92822C16.5784 3.92822 6.375 15.7961 6.375 30.4359C6.375 45.0756 16.5784 56.9435 36.9976 56.9435Z" fill="url(#paint6_radial_102_1996)"/>
<path d="M36.9976 56.9435C57.4167 56.9435 67.6201 45.0756 67.6201 30.4359C67.6201 15.7961 57.4167 3.92822 36.9976 3.92822C16.5784 3.92822 6.375 15.7961 6.375 30.4359C6.375 45.0756 16.5784 56.9435 36.9976 56.9435Z" fill="url(#paint7_radial_102_1996)"/>
</g>
<ellipse cx="21.7248" cy="25.5532" rx="10.2228" ry="8.84914" fill="url(#paint8_radial_102_1996)"/>
<path d="M24.7919 30.863C29.8732 30.863 33.9924 27.2973 33.9924 22.8988C33.9924 18.5003 29.8732 14.9346 24.7919 14.9346C19.7105 14.9346 15.5913 18.5003 15.5913 22.8988C15.5913 27.2973 19.7105 30.863 24.7919 30.863Z" fill="white"/>
<path d="M26.0625 28.5444C29.6869 28.5444 32.625 26.0011 32.625 22.8638C32.625 19.7264 29.6869 17.1831 26.0625 17.1831C22.4381 17.1831 19.5 19.7264 19.5 22.8638C19.5 26.0011 22.4381 28.5444 26.0625 28.5444Z" fill="url(#paint9_linear_102_1996)"/>
<ellipse cx="44.0969" cy="26.5432" rx="9.28443" ry="8.03683" fill="url(#paint10_radial_102_1996)"/>
<path d="M49.1807 31.0082C54.3083 31.0082 58.4651 27.41 58.4651 22.9714C58.4651 18.5328 54.3083 14.9346 49.1807 14.9346C44.053 14.9346 39.8962 18.5328 39.8962 22.9714C39.8962 27.41 44.053 31.0082 49.1807 31.0082Z" fill="white"/>
<path d="M47.9375 28.5444C51.5619 28.5444 54.5 26.0011 54.5 22.8638C54.5 19.7264 51.5619 17.1831 47.9375 17.1831C44.3131 17.1831 41.375 19.7264 41.375 22.8638C41.375 26.0011 44.3131 28.5444 47.9375 28.5444Z" fill="url(#paint11_linear_102_1996)"/>
<path d="M37 40.3174C27.1087 40.3174 25.5869 35.707 25.5869 35.707C25.5869 35.707 27.8695 39.6588 37 39.6588C46.1304 39.6588 48.4129 35.707 48.4129 35.707C48.4129 35.707 46.9205 40.3174 37 40.3174Z" fill="url(#paint12_radial_102_1996)" stroke="url(#paint13_radial_102_1996)" stroke-width="2" stroke-linejoin="round"/>
<defs>
<filter id="filter0_d_102_1996" x="-3.75" y="-2.73389" width="81.5" height="72.0938" filterUnits="userSpaceOnUse" color-interpolation-filters="sRGB">
<feFlood flood-opacity="0" result="BackgroundImageFix"/>
<feColorMatrix in="SourceAlpha" type="matrix" values="0 0 0 0 0 0 0 0 0 0 0 0 0 0 0 0 0 0 127 0" result="hardAlpha"/>
<feOffset dy="2.875"/>
<feGaussianBlur stdDeviation="2.875"/>
<feComposite in2="hardAlpha" operator="out"/>
<feColorMatrix type="matrix" values="0 0 0 0 0 0 0 0 0 0 0 0 0 0 0 0 0 0 0.25 0"/>
<feBlend mode="normal" in2="BackgroundImageFix" result="effect1_dropShadow_102_1996"/>
<feBlend mode="normal" in="SourceGraphic" in2="effect1_dropShadow_102_1996" result="shape"/>
</filter>
<radialGradient id="paint0_radial_102_1996" cx="0" cy="0" r="1" gradientUnits="userSpaceOnUse" gradientTransform="translate(57.7812 17.1831) rotate(136.969) scale(76.3094 76.3463)">
<stop stop-color="#FFF478"/>
<stop offset="0.474827" stop-color="#FFB02E"/>
<stop offset="1" stop-color="#F70A8D"/>
</radialGradient>
<radialGradient id="paint1_radial_102_1996" cx="0" cy="0" r="1" gradientUnits="userSpaceOnUse" gradientTransform="translate(57.7812 17.1831) rotate(136.005) scale(79.0583 79.4811)">
<stop stop-color="#FFF478"/>
<stop offset="0.474827" stop-color="#FFB02E"/>
<stop offset="1" stop-color="#F70A8D"/>
</radialGradient>
<radialGradient id="paint2_radial_102_1996" cx="0" cy="0" r="1" gradientUnits="userSpaceOnUse" gradientTransform="translate(37 23.8105) rotate(103.01) scale(34.0102 49.6834)">
<stop offset="0.787821" stop-color="#F59639" stop-opacity="0"/>
<stop offset="0.972509" stop-color="#FF7DCE"/>
</radialGradient>
<radialGradient id="paint3_radial_102_1996" cx="0" cy="0" r="1" gradientUnits="userSpaceOnUse" gradientTransform="translate(41.375 26.6509) rotate(139.12) scale(83.9033 83.0372)">
<stop offset="0.314853" stop-opacity="0"/>
<stop offset="1"/>
</radialGradient>
<radialGradient id="paint4_radial_102_1996" cx="0" cy="0" r="1" gradientUnits="userSpaceOnUse" gradientTransform="translate(37 32.3315) rotate(75.8532) scale(53.7014 61.1087)">
<stop offset="0.507903" stop-color="#7D6133" stop-opacity="0"/>
<stop offset="1" stop-color="#715B32"/>
</radialGradient>
<radialGradient id="paint5_radial_102_1996" cx="0" cy="0" r="1" gradientUnits="userSpaceOnUse" gradientTransform="translate(38.0937 31.3848) rotate(51.7739) scale(26.5145 20.0714)">
<stop stop-color="#FFB849"/>
<stop offset="1" stop-color="#FFB847" stop-opacity="0"/>
</radialGradient>
<radialGradient id="paint6_radial_102_1996" cx="0" cy="0" r="1" gradientUnits="userSpaceOnUse" gradientTransform="translate(46.8437 34.2251) rotate(8.56122) scale(25.4397 22.1845)">
<stop stop-color="#FFA64B"/>
<stop offset="0.900412" stop-color="#FFAE46" stop-opacity="0"/>
</radialGradient>
<radialGradient id="paint7_radial_102_1996" cx="0" cy="0" r="1" gradientUnits="userSpaceOnUse" gradientTransform="translate(40.2812 28.5444) rotate(39.8644) scale(121.122 119.258)">
<stop offset="0.185425" stop-opacity="0"/>
<stop offset="1" stop-opacity="0.4"/>
</radialGradient>
<radialGradient id="paint8_radial_102_1996" cx="0" cy="0" r="1" gradientUnits="userSpaceOnUse" gradientTransform="translate(29.6759 18.6706) rotate(139.12) scale(18.6287 9.54209)">
<stop stop-color="#392108"/>
<stop offset="1" stop-color="#C87928" stop-opacity="0"/>
</radialGradient>
<linearGradient id="paint9_linear_102_1996" x1="38.0938" y1="15.2896" x2="36.4464" y2="28.6112" gradientUnits="userSpaceOnUse">
<stop stop-color="#553B3E"/>
<stop offset="1" stop-color="#3D2432"/>
</linearGradient>
<radialGradient id="paint10_radial_102_1996" cx="0" cy="0" r="1" gradientUnits="userSpaceOnUse" gradientTransform="translate(51.3181 20.2923) rotate(139.12) scale(15.6907 8.76624)">
<stop stop-color="#392108"/>
<stop offset="1" stop-color="#C87928" stop-opacity="0"/>
</radialGradient>
<linearGradient id="paint11_linear_102_1996" x1="38.0938" y1="15.2896" x2="36.4464" y2="28.6112" gradientUnits="userSpaceOnUse">
<stop stop-color="#553B3E"/>
<stop offset="1" stop-color="#3D2432"/>
</linearGradient>
<radialGradient id="paint12_radial_102_1996" cx="0" cy="0" r="1" gradientUnits="userSpaceOnUse" gradientTransform="translate(37 55.2189) rotate(-90) scale(20.8291 48.125)">
<stop stop-color="#F70A8D"/>
<stop offset="1" stop-color="#89029C"/>
</radialGradient>
<radialGradient id="paint13_radial_102_1996" cx="0" cy="0" r="1" gradientUnits="userSpaceOnUse" gradientTransform="translate(37.0437 34.3899) rotate(90) scale(7.24481 16.1522)">
<stop offset="0.34763" stop-color="#241A1A"/>
<stop offset="0.628228" stop-color="#57444A"/>
<stop offset="1" stop-color="#4E2553"/>
<stop offset="1" stop-color="#502A56"/>
</radialGradient>
</defs>
</svg>
