<svg width="74" height="66" viewBox="0 0 74 66" fill="none" xmlns="http://www.w3.org/2000/svg">
<g filter="url(#filter0_d_102_1994)">
<path d="M36.9976 56.9435C57.4167 56.9435 67.6201 45.0756 67.6201 30.4359C67.6201 15.7961 57.4167 3.92822 36.9976 3.92822C16.5784 3.92822 6.375 15.7961 6.375 30.4359C6.375 45.0756 16.5784 56.9435 36.9976 56.9435Z" fill="url(#paint0_radial_102_1994)"/>
<path d="M36.9976 56.9435C57.4167 56.9435 67.6201 45.0756 67.6201 30.4359C67.6201 15.7961 57.4167 3.92822 36.9976 3.92822C16.5784 3.92822 6.375 15.7961 6.375 30.4359C6.375 45.0756 16.5784 56.9435 36.9976 56.9435Z" fill="url(#paint1_radial_102_1994)"/>
<path d="M36.9976 56.9435C57.4167 56.9435 67.6201 45.0756 67.6201 30.4359C67.6201 15.7961 57.4167 3.92822 36.9976 3.92822C16.5784 3.92822 6.375 15.7961 6.375 30.4359C6.375 45.0756 16.5784 56.9435 36.9976 56.9435Z" fill="url(#paint2_radial_102_1994)"/>
<path d="M36.9976 56.9435C57.4167 56.9435 67.6201 45.0756 67.6201 30.4359C67.6201 15.7961 57.4167 3.92822 36.9976 3.92822C16.5784 3.92822 6.375 15.7961 6.375 30.4359C6.375 45.0756 16.5784 56.9435 36.9976 56.9435Z" fill="url(#paint3_radial_102_1994)" fill-opacity="0.6"/>
<path d="M36.9976 56.9435C57.4167 56.9435 67.6201 45.0756 67.6201 30.4359C67.6201 15.7961 57.4167 3.92822 36.9976 3.92822C16.5784 3.92822 6.375 15.7961 6.375 30.4359C6.375 45.0756 16.5784 56.9435 36.9976 56.9435Z" fill="url(#paint4_radial_102_1994)"/>
<path d="M36.9976 56.9435C57.4167 56.9435 67.6201 45.0756 67.6201 30.4359C67.6201 15.7961 57.4167 3.92822 36.9976 3.92822C16.5784 3.92822 6.375 15.7961 6.375 30.4359C6.375 45.0756 16.5784 56.9435 36.9976 56.9435Z" fill="url(#paint5_radial_102_1994)"/>
<path d="M36.9976 56.9435C57.4167 56.9435 67.6201 45.0756 67.6201 30.4359C67.6201 15.7961 57.4167 3.92822 36.9976 3.92822C16.5784 3.92822 6.375 15.7961 6.375 30.4359C6.375 45.0756 16.5784 56.9435 36.9976 56.9435Z" fill="url(#paint6_radial_102_1994)"/>
<path d="M36.9976 56.9435C57.4167 56.9435 67.6201 45.0756 67.6201 30.4359C67.6201 15.7961 57.4167 3.92822 36.9976 3.92822C16.5784 3.92822 6.375 15.7961 6.375 30.4359C6.375 45.0756 16.5784 56.9435 36.9976 56.9435Z" fill="url(#paint7_radial_102_1994)"/>
</g>
<g filter="url(#filter1_f_102_1994)">
<path d="M22.6663 36.739C21.5857 37.2067 20.2717 36.8275 19.7314 35.8922C19.1911 34.9568 19.6291 33.8194 20.7097 33.3517L25.5364 31.2626H32.6255C32.6236 31.9781 32.1559 32.6318 31.4163 32.9519L22.6663 36.739Z" fill="url(#paint8_radial_102_1994)" fill-opacity="0.6" style="mix-blend-mode:multiply"/>
<path d="M22.6663 25.7863C21.5857 25.3186 20.2717 25.6977 19.7314 26.6331C19.1911 27.5685 19.6291 28.7059 20.7097 29.1736L25.5364 31.2626H32.6255C32.6236 30.5471 32.1559 29.8935 31.4163 29.5734L22.6663 25.7863Z" fill="url(#paint9_radial_102_1994)" fill-opacity="0.6" style="mix-blend-mode:multiply"/>
</g>
<path d="M22.6663 35.91C21.5857 36.3777 20.2717 35.9986 19.7314 35.0632C19.1911 34.1278 19.6291 32.9904 20.7097 32.5227L25.5364 30.4337H32.6255C32.6236 31.1492 32.1559 31.8028 31.4163 32.1229L22.6663 35.91Z" fill="url(#paint10_linear_102_1994)"/>
<path d="M22.6663 24.9576C21.5857 24.49 20.2717 24.8691 19.7314 25.8045C19.1911 26.7398 19.6291 27.8773 20.7097 28.3449L25.5364 30.434H32.6255C32.6236 29.7185 32.1559 29.0649 31.4163 28.7448L22.6663 24.9576Z" fill="url(#paint11_linear_102_1994)"/>
<g filter="url(#filter2_f_102_1994)">
<path d="M50.0354 36.739C51.116 37.2067 52.4299 36.8275 52.9702 35.8922C53.5105 34.9568 53.0725 33.8194 51.9919 33.3517L47.1652 31.2626H40.0762C40.0781 31.9781 40.5458 32.6318 41.2854 32.9519L50.0354 36.739Z" fill="url(#paint12_radial_102_1994)"/>
<path d="M50.0354 25.7863C51.116 25.3186 52.4299 25.6977 52.9702 26.6331C53.5105 27.5685 53.0725 28.7059 51.9919 29.1736L47.1652 31.2626H40.0762C40.0781 30.5471 40.5458 29.8935 41.2854 29.5734L50.0354 25.7863Z" fill="url(#paint13_radial_102_1994)"/>
</g>
<path d="M51.3 35.91C52.3806 36.3777 53.6946 35.9986 54.2349 35.0632C54.7752 34.1278 54.3372 32.9904 53.2566 32.5227L48.4299 30.4337H41.3408C41.3427 31.1492 41.8105 31.8028 42.55 32.1229L51.3 35.91Z" fill="url(#paint14_linear_102_1994)"/>
<path d="M51.3 24.9576C52.3806 24.49 53.6946 24.8691 54.2349 25.8045C54.7752 26.7398 54.3372 27.8773 53.2566 28.3449L48.4299 30.434H41.3408C41.3427 29.7185 41.8105 29.0649 42.55 28.7448L51.3 24.9576Z" fill="url(#paint15_linear_102_1994)"/>
<g filter="url(#filter3_f_102_1994)">
<path d="M30.1594 43.8587L35.3928 47.6495M41.3401 43.2407L46.5735 47.0315" stroke="#CD6256" stroke-width="1.5" stroke-linecap="round" stroke-linejoin="round"/>
</g>
<path d="M19.1799 42.6519L24.4218 46.4488" stroke="url(#paint16_linear_102_1994)" stroke-width="2" stroke-linecap="round" stroke-linejoin="round"/>
<path d="M24.4219 46.4482L30.4775 42.0376" stroke="url(#paint17_linear_102_1994)" stroke-width="2" stroke-linecap="round" stroke-linejoin="round"/>
<path d="M30.7234 41.8965L37.0027 46.4495" stroke="url(#paint18_linear_102_1994)" stroke-width="2" stroke-linecap="round" stroke-linejoin="round"/>
<path d="M43.2793 41.8965L37 46.4495" stroke="url(#paint19_linear_102_1994)" stroke-width="2" stroke-linecap="round" stroke-linejoin="round"/>
<path d="M43.2793 41.8965L49.5586 46.4495" stroke="url(#paint20_linear_102_1994)" stroke-width="2" stroke-linecap="round" stroke-linejoin="round"/>
<path d="M54.8523 42.6074L49.5801 46.4485" stroke="url(#paint21_linear_102_1994)" stroke-width="2" stroke-linecap="round" stroke-linejoin="round"/>
<path d="M19.1799 42.6515L24.4218 46.4485L30.7121 41.8921L37.0024 46.4485L43.2927 41.8921L49.583 46.4485L54.8249 42.6515" stroke="url(#paint22_linear_102_1994)" stroke-width="2" stroke-linecap="round" stroke-linejoin="round"/>
<g filter="url(#filter4_f_102_1994)">
<path d="M19.1799 42.6515L24.4218 46.4485L30.7121 41.8921L37.0024 46.4485L43.2927 41.8921L49.583 46.4485L54.8249 42.6515" stroke="#694C5E" stroke-width="0.5" stroke-linecap="round" stroke-linejoin="round"/>
</g>
<defs>
<filter id="filter0_d_102_1994" x="-3.75" y="-2.73389" width="81.5" height="72.0938" filterUnits="userSpaceOnUse" color-interpolation-filters="sRGB">
<feFlood flood-opacity="0" result="BackgroundImageFix"/>
<feColorMatrix in="SourceAlpha" type="matrix" values="0 0 0 0 0 0 0 0 0 0 0 0 0 0 0 0 0 0 127 0" result="hardAlpha"/>
<feOffset dy="2.875"/>
<feGaussianBlur stdDeviation="2.875"/>
<feComposite in2="hardAlpha" operator="out"/>
<feColorMatrix type="matrix" values="0 0 0 0 0 0 0 0 0 0 0 0 0 0 0 0 0 0 0.25 0"/>
<feBlend mode="normal" in2="BackgroundImageFix" result="effect1_dropShadow_102_1994"/>
<feBlend mode="normal" in="SourceGraphic" in2="effect1_dropShadow_102_1994" result="shape"/>
</filter>
<filter id="filter1_f_102_1994" x="19" y="25.0859" width="14.1255" height="12.3535" filterUnits="userSpaceOnUse" color-interpolation-filters="sRGB">
<feFlood flood-opacity="0" result="BackgroundImageFix"/>
<feBlend mode="normal" in="SourceGraphic" in2="BackgroundImageFix" result="shape"/>
<feGaussianBlur stdDeviation="0.25" result="effect1_foregroundBlur_102_1994"/>
</filter>
<filter id="filter2_f_102_1994" x="39.5762" y="25.0859" width="14.1255" height="12.3535" filterUnits="userSpaceOnUse" color-interpolation-filters="sRGB">
<feFlood flood-opacity="0" result="BackgroundImageFix"/>
<feBlend mode="normal" in="SourceGraphic" in2="BackgroundImageFix" result="shape"/>
<feGaussianBlur stdDeviation="0.25" result="effect1_foregroundBlur_102_1994"/>
</filter>
<filter id="filter3_f_102_1994" x="27.9094" y="40.9907" width="20.9141" height="8.90869" filterUnits="userSpaceOnUse" color-interpolation-filters="sRGB">
<feFlood flood-opacity="0" result="BackgroundImageFix"/>
<feBlend mode="normal" in="SourceGraphic" in2="BackgroundImageFix" result="shape"/>
<feGaussianBlur stdDeviation="0.75" result="effect1_foregroundBlur_102_1994"/>
</filter>
<filter id="filter4_f_102_1994" x="18.1799" y="40.8921" width="37.645" height="6.55615" filterUnits="userSpaceOnUse" color-interpolation-filters="sRGB">
<feFlood flood-opacity="0" result="BackgroundImageFix"/>
<feBlend mode="normal" in="SourceGraphic" in2="BackgroundImageFix" result="shape"/>
<feGaussianBlur stdDeviation="0.375" result="effect1_foregroundBlur_102_1994"/>
</filter>
<radialGradient id="paint0_radial_102_1994" cx="0" cy="0" r="1" gradientUnits="userSpaceOnUse" gradientTransform="translate(57.7812 17.1831) rotate(136.969) scale(76.3094 76.3463)">
<stop stop-color="#FFF478"/>
<stop offset="0.474827" stop-color="#FFB02E"/>
<stop offset="1" stop-color="#F70A8D"/>
</radialGradient>
<radialGradient id="paint1_radial_102_1994" cx="0" cy="0" r="1" gradientUnits="userSpaceOnUse" gradientTransform="translate(57.7812 17.1831) rotate(136.005) scale(79.0583 79.4811)">
<stop stop-color="#FFF478"/>
<stop offset="0.474827" stop-color="#FFB02E"/>
<stop offset="1" stop-color="#F70A8D"/>
</radialGradient>
<radialGradient id="paint2_radial_102_1994" cx="0" cy="0" r="1" gradientUnits="userSpaceOnUse" gradientTransform="translate(37 23.8105) rotate(103.01) scale(34.0102 49.6834)">
<stop offset="0.787821" stop-color="#F59639" stop-opacity="0"/>
<stop offset="0.972509" stop-color="#FF7DCE"/>
</radialGradient>
<radialGradient id="paint3_radial_102_1994" cx="0" cy="0" r="1" gradientUnits="userSpaceOnUse" gradientTransform="translate(41.375 26.6509) rotate(139.12) scale(83.9033 83.0372)">
<stop offset="0.314853" stop-opacity="0"/>
<stop offset="1"/>
</radialGradient>
<radialGradient id="paint4_radial_102_1994" cx="0" cy="0" r="1" gradientUnits="userSpaceOnUse" gradientTransform="translate(37 32.3315) rotate(75.8532) scale(53.7014 61.1087)">
<stop offset="0.507903" stop-color="#7D6133" stop-opacity="0"/>
<stop offset="1" stop-color="#715B32"/>
</radialGradient>
<radialGradient id="paint5_radial_102_1994" cx="0" cy="0" r="1" gradientUnits="userSpaceOnUse" gradientTransform="translate(38.0937 31.3848) rotate(51.7739) scale(26.5145 20.0714)">
<stop stop-color="#FFB849"/>
<stop offset="1" stop-color="#FFB847" stop-opacity="0"/>
</radialGradient>
<radialGradient id="paint6_radial_102_1994" cx="0" cy="0" r="1" gradientUnits="userSpaceOnUse" gradientTransform="translate(46.8437 34.2251) rotate(8.56122) scale(25.4397 22.1845)">
<stop stop-color="#FFA64B"/>
<stop offset="0.900412" stop-color="#FFAE46" stop-opacity="0"/>
</radialGradient>
<radialGradient id="paint7_radial_102_1994" cx="0" cy="0" r="1" gradientUnits="userSpaceOnUse" gradientTransform="translate(40.2812 28.5444) rotate(39.8644) scale(121.122 119.258)">
<stop offset="0.185425" stop-opacity="0"/>
<stop offset="1" stop-opacity="0.4"/>
</radialGradient>
<radialGradient id="paint8_radial_102_1994" cx="0" cy="0" r="1" gradientUnits="userSpaceOnUse" gradientTransform="translate(23.3965 25.5859) rotate(113.055) scale(14.6627 21.2879)">
<stop stop-color="#9F5E0F"/>
<stop offset="0.889024" stop-color="#9F5E0F" stop-opacity="0"/>
</radialGradient>
<radialGradient id="paint9_radial_102_1994" cx="0" cy="0" r="1" gradientUnits="userSpaceOnUse" gradientTransform="translate(23.3965 25.5859) rotate(113.055) scale(14.6627 21.2879)">
<stop stop-color="#9F5E0F"/>
<stop offset="0.889024" stop-color="#9F5E0F" stop-opacity="0"/>
</radialGradient>
<linearGradient id="paint10_linear_102_1994" x1="25.1401" y1="37.5049" x2="20.7039" y2="26.8834" gradientUnits="userSpaceOnUse">
<stop offset="0.24955" stop-color="#482641"/>
<stop offset="0.406361" stop-color="#503A4A"/>
<stop offset="0.511203" stop-color="#482641"/>
</linearGradient>
<linearGradient id="paint11_linear_102_1994" x1="21.3804" y1="30.7003" x2="25.5127" y2="21.3399" gradientUnits="userSpaceOnUse">
<stop offset="0.24955" stop-color="#482641"/>
<stop offset="0.406361" stop-color="#503A4A"/>
<stop offset="0.511203" stop-color="#482641"/>
</linearGradient>
<radialGradient id="paint12_radial_102_1994" cx="0" cy="0" r="1" gradientUnits="userSpaceOnUse" gradientTransform="translate(60.6865 38.8408) rotate(-140.102) scale(27.3994 35.2659)">
<stop stop-color="#E9830A"/>
<stop offset="0.801655" stop-color="#F08B13" stop-opacity="0"/>
</radialGradient>
<radialGradient id="paint13_radial_102_1994" cx="0" cy="0" r="1" gradientUnits="userSpaceOnUse" gradientTransform="translate(60.6865 38.8408) rotate(-140.102) scale(27.3994 35.2659)">
<stop stop-color="#E9830A"/>
<stop offset="0.801655" stop-color="#F08B13" stop-opacity="0"/>
</radialGradient>
<linearGradient id="paint14_linear_102_1994" x1="48.8262" y1="37.5049" x2="53.2624" y2="26.8834" gradientUnits="userSpaceOnUse">
<stop offset="0.24955" stop-color="#482641"/>
<stop offset="0.406361" stop-color="#503A4A"/>
<stop offset="0.511203" stop-color="#482641"/>
</linearGradient>
<linearGradient id="paint15_linear_102_1994" x1="52.5859" y1="30.7003" x2="48.4536" y2="21.3399" gradientUnits="userSpaceOnUse">
<stop offset="0.24955" stop-color="#482641"/>
<stop offset="0.406361" stop-color="#503A4A"/>
<stop offset="0.511203" stop-color="#482641"/>
</linearGradient>
<linearGradient id="paint16_linear_102_1994" x1="18.2572" y1="45.2419" x2="25.2247" y2="35.623" gradientUnits="userSpaceOnUse">
<stop stop-color="#482641"/>
<stop offset="0.322917" stop-color="#57434E"/>
<stop offset="0.4375" stop-color="#483637"/>
</linearGradient>
<linearGradient id="paint17_linear_102_1994" x1="27.6927" y1="46.9025" x2="22.3607" y2="39.3868" gradientUnits="userSpaceOnUse">
<stop offset="0.0197505" stop-color="#482641"/>
<stop offset="0.322917" stop-color="#57434E"/>
<stop offset="0.46422" stop-color="#483637"/>
</linearGradient>
<linearGradient id="paint18_linear_102_1994" x1="30.2865" y1="44.4323" x2="35.8015" y2="36.9752" gradientUnits="userSpaceOnUse">
<stop offset="0.0197505" stop-color="#482641"/>
<stop offset="0.322917" stop-color="#57434E"/>
<stop offset="0.46422" stop-color="#483637"/>
</linearGradient>
<linearGradient id="paint19_linear_102_1994" x1="43.7162" y1="44.4323" x2="38.2012" y2="36.9752" gradientUnits="userSpaceOnUse">
<stop offset="0.0197505" stop-color="#482641"/>
<stop offset="0.322917" stop-color="#57434E"/>
<stop offset="0.46422" stop-color="#483637"/>
</linearGradient>
<linearGradient id="paint20_linear_102_1994" x1="42.8424" y1="44.4323" x2="48.3574" y2="36.9752" gradientUnits="userSpaceOnUse">
<stop offset="0.0197505" stop-color="#482641"/>
<stop offset="0.322917" stop-color="#57434E"/>
<stop offset="0.46422" stop-color="#483637"/>
</linearGradient>
<linearGradient id="paint21_linear_102_1994" x1="56.2963" y1="44.4313" x2="50.7813" y2="36.9742" gradientUnits="userSpaceOnUse">
<stop offset="0.0197505" stop-color="#482641"/>
<stop offset="0.322917" stop-color="#57434E"/>
<stop offset="0.46422" stop-color="#483637"/>
</linearGradient>
<linearGradient id="paint22_linear_102_1994" x1="37.0024" y1="48.5402" x2="37.0024" y2="45.5975" gradientUnits="userSpaceOnUse">
<stop stop-color="#53265E"/>
<stop offset="1" stop-color="#53265E" stop-opacity="0"/>
</linearGradient>
</defs>
</svg>
