<svg width="74" height="66" viewBox="0 0 74 66" fill="none" xmlns="http://www.w3.org/2000/svg">
<g filter="url(#filter0_d_102_1995)">
<path d="M36.9976 56.9435C57.4167 56.9435 67.6201 45.0756 67.6201 30.4359C67.6201 15.7961 57.4167 3.92822 36.9976 3.92822C16.5784 3.92822 6.375 15.7961 6.375 30.4359C6.375 45.0756 16.5784 56.9435 36.9976 56.9435Z" fill="url(#paint0_radial_102_1995)"/>
<path d="M36.9976 56.9435C57.4167 56.9435 67.6201 45.0756 67.6201 30.4359C67.6201 15.7961 57.4167 3.92822 36.9976 3.92822C16.5784 3.92822 6.375 15.7961 6.375 30.4359C6.375 45.0756 16.5784 56.9435 36.9976 56.9435Z" fill="url(#paint1_radial_102_1995)"/>
<path d="M36.9976 56.9435C57.4167 56.9435 67.6201 45.0756 67.6201 30.4359C67.6201 15.7961 57.4167 3.92822 36.9976 3.92822C16.5784 3.92822 6.375 15.7961 6.375 30.4359C6.375 45.0756 16.5784 56.9435 36.9976 56.9435Z" fill="url(#paint2_radial_102_1995)"/>
<path d="M36.9976 56.9435C57.4167 56.9435 67.6201 45.0756 67.6201 30.4359C67.6201 15.7961 57.4167 3.92822 36.9976 3.92822C16.5784 3.92822 6.375 15.7961 6.375 30.4359C6.375 45.0756 16.5784 56.9435 36.9976 56.9435Z" fill="url(#paint3_radial_102_1995)" fill-opacity="0.6"/>
<path d="M36.9976 56.9435C57.4167 56.9435 67.6201 45.0756 67.6201 30.4359C67.6201 15.7961 57.4167 3.92822 36.9976 3.92822C16.5784 3.92822 6.375 15.7961 6.375 30.4359C6.375 45.0756 16.5784 56.9435 36.9976 56.9435Z" fill="url(#paint4_radial_102_1995)"/>
<path d="M36.9976 56.9435C57.4167 56.9435 67.6201 45.0756 67.6201 30.4359C67.6201 15.7961 57.4167 3.92822 36.9976 3.92822C16.5784 3.92822 6.375 15.7961 6.375 30.4359C6.375 45.0756 16.5784 56.9435 36.9976 56.9435Z" fill="url(#paint5_radial_102_1995)"/>
<path d="M36.9976 56.9435C57.4167 56.9435 67.6201 45.0756 67.6201 30.4359C67.6201 15.7961 57.4167 3.92822 36.9976 3.92822C16.5784 3.92822 6.375 15.7961 6.375 30.4359C6.375 45.0756 16.5784 56.9435 36.9976 56.9435Z" fill="url(#paint6_radial_102_1995)"/>
<path d="M36.9976 56.9435C57.4167 56.9435 67.6201 45.0756 67.6201 30.4359C67.6201 15.7961 57.4167 3.92822 36.9976 3.92822C16.5784 3.92822 6.375 15.7961 6.375 30.4359C6.375 45.0756 16.5784 56.9435 36.9976 56.9435Z" fill="url(#paint7_radial_102_1995)"/>
</g>
<path d="M17.3125 32.3315C20.5938 35.1719 28.0972 34.4897 30.4375 30.438" stroke="url(#paint8_linear_102_1995)" stroke-width="2.875" stroke-linecap="round" stroke-linejoin="round"/>
<path d="M56.6875 32.3315C53.4062 35.1719 45.9028 34.4897 43.5625 30.438" stroke="url(#paint9_linear_102_1995)" stroke-width="2.875" stroke-linecap="round" stroke-linejoin="round"/>
<path fill-rule="evenodd" clip-rule="evenodd" d="M46.287 46.9113C41.1497 42.4967 32.8419 42.5122 27.7215 46.9608C26.8688 47.7016 25.4837 47.7038 24.6279 46.9657C23.7721 46.2275 23.7695 45.0286 24.6223 44.2878C31.4456 38.3597 42.5191 38.3372 49.3692 44.2236C50.2266 44.9604 50.2317 46.1593 49.3806 46.9015C48.5294 47.6437 47.1444 47.6481 46.287 46.9113Z" fill="url(#paint10_linear_102_1995)"/>
<defs>
<filter id="filter0_d_102_1995" x="-3.75" y="-2.73389" width="81.5" height="72.0938" filterUnits="userSpaceOnUse" color-interpolation-filters="sRGB">
<feFlood flood-opacity="0" result="BackgroundImageFix"/>
<feColorMatrix in="SourceAlpha" type="matrix" values="0 0 0 0 0 0 0 0 0 0 0 0 0 0 0 0 0 0 127 0" result="hardAlpha"/>
<feOffset dy="2.875"/>
<feGaussianBlur stdDeviation="2.875"/>
<feComposite in2="hardAlpha" operator="out"/>
<feColorMatrix type="matrix" values="0 0 0 0 0 0 0 0 0 0 0 0 0 0 0 0 0 0 0.25 0"/>
<feBlend mode="normal" in2="BackgroundImageFix" result="effect1_dropShadow_102_1995"/>
<feBlend mode="normal" in="SourceGraphic" in2="effect1_dropShadow_102_1995" result="shape"/>
</filter>
<radialGradient id="paint0_radial_102_1995" cx="0" cy="0" r="1" gradientUnits="userSpaceOnUse" gradientTransform="translate(57.7812 17.1831) rotate(136.969) scale(76.3094 76.3463)">
<stop stop-color="#FFF478"/>
<stop offset="0.474827" stop-color="#FFB02E"/>
<stop offset="1" stop-color="#F70A8D"/>
</radialGradient>
<radialGradient id="paint1_radial_102_1995" cx="0" cy="0" r="1" gradientUnits="userSpaceOnUse" gradientTransform="translate(57.7812 17.1831) rotate(136.005) scale(79.0583 79.4811)">
<stop stop-color="#FFF478"/>
<stop offset="0.474827" stop-color="#FFB02E"/>
<stop offset="1" stop-color="#F70A8D"/>
</radialGradient>
<radialGradient id="paint2_radial_102_1995" cx="0" cy="0" r="1" gradientUnits="userSpaceOnUse" gradientTransform="translate(37 23.8105) rotate(103.01) scale(34.0102 49.6834)">
<stop offset="0.787821" stop-color="#F59639" stop-opacity="0"/>
<stop offset="0.972509" stop-color="#FF7DCE"/>
</radialGradient>
<radialGradient id="paint3_radial_102_1995" cx="0" cy="0" r="1" gradientUnits="userSpaceOnUse" gradientTransform="translate(41.375 26.6509) rotate(139.12) scale(83.9033 83.0372)">
<stop offset="0.314853" stop-opacity="0"/>
<stop offset="1"/>
</radialGradient>
<radialGradient id="paint4_radial_102_1995" cx="0" cy="0" r="1" gradientUnits="userSpaceOnUse" gradientTransform="translate(37 32.3315) rotate(75.8532) scale(53.7014 61.1087)">
<stop offset="0.507903" stop-color="#7D6133" stop-opacity="0"/>
<stop offset="1" stop-color="#715B32"/>
</radialGradient>
<radialGradient id="paint5_radial_102_1995" cx="0" cy="0" r="1" gradientUnits="userSpaceOnUse" gradientTransform="translate(38.0937 31.3848) rotate(51.7739) scale(26.5145 20.0714)">
<stop stop-color="#FFB849"/>
<stop offset="1" stop-color="#FFB847" stop-opacity="0"/>
</radialGradient>
<radialGradient id="paint6_radial_102_1995" cx="0" cy="0" r="1" gradientUnits="userSpaceOnUse" gradientTransform="translate(46.8437 34.2251) rotate(8.56122) scale(25.4397 22.1845)">
<stop stop-color="#FFA64B"/>
<stop offset="0.900412" stop-color="#FFAE46" stop-opacity="0"/>
</radialGradient>
<radialGradient id="paint7_radial_102_1995" cx="0" cy="0" r="1" gradientUnits="userSpaceOnUse" gradientTransform="translate(40.2812 28.5444) rotate(39.8644) scale(121.122 119.258)">
<stop offset="0.185425" stop-opacity="0"/>
<stop offset="1" stop-opacity="0.4"/>
</radialGradient>
<linearGradient id="paint8_linear_102_1995" x1="26.5" y1="31.8582" x2="26.112" y2="34.5478" gradientUnits="userSpaceOnUse">
<stop stop-color="#52383E"/>
<stop offset="1" stop-color="#432A35"/>
</linearGradient>
<linearGradient id="paint9_linear_102_1995" x1="47.5" y1="31.8582" x2="47.888" y2="34.5478" gradientUnits="userSpaceOnUse">
<stop stop-color="#52383E"/>
<stop offset="1" stop-color="#432A35"/>
</linearGradient>
<linearGradient id="paint10_linear_102_1995" x1="37" y1="39.766" x2="37" y2="43.6715" gradientUnits="userSpaceOnUse">
<stop stop-color="#4F3C43"/>
<stop offset="1" stop-color="#512756"/>
</linearGradient>
</defs>
</svg>
