<svg width="74" height="66" viewBox="0 0 74 66" fill="none" xmlns="http://www.w3.org/2000/svg">
<g filter="url(#filter0_d_102_1997)">
<path d="M36.9976 56.9435C57.4167 56.9435 67.6201 45.0756 67.6201 30.4359C67.6201 15.7961 57.4167 3.92822 36.9976 3.92822C16.5784 3.92822 6.375 15.7961 6.375 30.4359C6.375 45.0756 16.5784 56.9435 36.9976 56.9435Z" fill="url(#paint0_radial_102_1997)"/>
<path d="M36.9976 56.9435C57.4167 56.9435 67.6201 45.0756 67.6201 30.4359C67.6201 15.7961 57.4167 3.92822 36.9976 3.92822C16.5784 3.92822 6.375 15.7961 6.375 30.4359C6.375 45.0756 16.5784 56.9435 36.9976 56.9435Z" fill="url(#paint1_radial_102_1997)"/>
<path d="M36.9976 56.9435C57.4167 56.9435 67.6201 45.0756 67.6201 30.4359C67.6201 15.7961 57.4167 3.92822 36.9976 3.92822C16.5784 3.92822 6.375 15.7961 6.375 30.4359C6.375 45.0756 16.5784 56.9435 36.9976 56.9435Z" fill="url(#paint2_radial_102_1997)"/>
<path d="M36.9976 56.9435C57.4167 56.9435 67.6201 45.0756 67.6201 30.4359C67.6201 15.7961 57.4167 3.92822 36.9976 3.92822C16.5784 3.92822 6.375 15.7961 6.375 30.4359C6.375 45.0756 16.5784 56.9435 36.9976 56.9435Z" fill="url(#paint3_radial_102_1997)" fill-opacity="0.6"/>
<path d="M36.9976 56.9435C57.4167 56.9435 67.6201 45.0756 67.6201 30.4359C67.6201 15.7961 57.4167 3.92822 36.9976 3.92822C16.5784 3.92822 6.375 15.7961 6.375 30.4359C6.375 45.0756 16.5784 56.9435 36.9976 56.9435Z" fill="url(#paint4_radial_102_1997)"/>
<path d="M36.9976 56.9435C57.4167 56.9435 67.6201 45.0756 67.6201 30.4359C67.6201 15.7961 57.4167 3.92822 36.9976 3.92822C16.5784 3.92822 6.375 15.7961 6.375 30.4359C6.375 45.0756 16.5784 56.9435 36.9976 56.9435Z" fill="url(#paint5_radial_102_1997)"/>
<path d="M36.9976 56.9435C57.4167 56.9435 67.6201 45.0756 67.6201 30.4359C67.6201 15.7961 57.4167 3.92822 36.9976 3.92822C16.5784 3.92822 6.375 15.7961 6.375 30.4359C6.375 45.0756 16.5784 56.9435 36.9976 56.9435Z" fill="url(#paint6_radial_102_1997)"/>
<path d="M36.9976 56.9435C57.4167 56.9435 67.6201 45.0756 67.6201 30.4359C67.6201 15.7961 57.4167 3.92822 36.9976 3.92822C16.5784 3.92822 6.375 15.7961 6.375 30.4359C6.375 45.0756 16.5784 56.9435 36.9976 56.9435Z" fill="url(#paint7_radial_102_1997)"/>
</g>
<g filter="url(#filter1_f_102_1997)">
<path d="M9.76196 35.3536C10.2405 37.0696 11.6153 40.3296 16.0052 41.2704C16.6596 41.4106 17.3028 41.5126 17.9479 41.5895C17.9793 41.5932 18.0107 41.5964 18.0423 41.599C27.4595 42.3629 33.6851 35.472 33.9891 27.9753C34.0143 27.354 34.5669 26.8285 35.2851 26.8205C35.6676 26.8162 36.0642 26.8167 36.4724 26.8228C37.1876 26.8337 37.7365 27.3576 37.7619 27.9764C38.0693 35.4728 44.289 42.363 53.7082 41.599C53.7398 41.5964 53.7712 41.5932 53.8026 41.5895C54.4477 41.5126 55.0909 41.4106 55.7453 41.2704C61.561 40.024 65.1688 36.7153 67.0138 33.1663C66.7276 31.6649 66.3201 30.2103 65.7914 28.8143C65.2392 32.9866 62.6584 33.5134 55.7453 34.9949C55.1763 35.1169 53.2319 36.2903 52.6518 36.3595C46.0893 36.8921 44.2436 33.1663 40.5238 27.2171L40.5234 27.158C40.5234 27.1307 40.5237 27.1034 40.5241 27.0761C40.765 27.1034 41.0072 27.1331 41.2501 27.1655L41.8486 23.8035C42.5401 23.0321 43.4647 22.425 44.531 22.0617C44.7816 21.968 45.3677 21.7551 47.1799 21.4626C49.0496 21.1608 54.0409 21.1643 57.0873 21.1664L57.7671 21.1667C59.3756 21.1667 60.8364 21.571 61.78 21.9407C61.0092 21.0221 60.1607 20.1545 59.2346 19.344C58.7536 19.2988 58.261 19.2732 57.7671 19.2732L57.0789 19.2728C55.561 19.2718 53.5308 19.2704 51.6427 19.3075C49.8134 19.3434 47.1035 19.4444 45.9644 19.6282C44.0812 19.9321 43.3217 20.1756 42.8818 20.3383C41.6724 20.7555 40.6338 21.3986 39.8139 22.2093C39.2749 22.7424 38.5112 23.0983 37.6936 23.0669C36.3808 23.0166 35.1464 23.0223 34.0413 23.0611C33.2278 23.0896 32.4691 22.7351 31.9324 22.2052C31.1131 21.3964 30.076 20.7548 28.8687 20.3383C28.4288 20.1756 27.6692 19.9321 25.786 19.6282C24.647 19.4444 21.9371 19.3434 20.1078 19.3075C18.2197 19.2704 16.1895 19.2718 14.6715 19.2728L14.6434 19.2728C13.9183 19.9017 13.2404 20.5653 12.6096 21.2608C13.0484 21.2018 13.5095 21.1667 13.9834 21.1667L14.6632 21.1664C17.7096 21.1643 22.7009 21.1608 24.5706 21.4626C26.3828 21.7551 26.9688 21.968 27.2195 22.0617C28.2465 22.4116 29.1421 22.9877 29.8245 23.719L30.5721 27.1549C30.7504 27.1258 30.9699 27.0949 31.2262 27.064C31.2268 27.0953 31.2271 27.1266 31.2271 27.158L31.2267 27.2171C31.6198 35.1908 24.6048 39.9966 18.0423 39.464C17.4621 39.3949 16.8958 39.3046 16.3267 39.1827C11.2987 38.1051 11.6641 34.9078 10.2405 31.8623C9.98792 32.9809 9.87647 34.1841 9.76196 35.3536Z" fill="url(#paint8_linear_102_1997)"/>
</g>
<path fill-rule="evenodd" clip-rule="evenodd" d="M29.991 18.4447C31.4004 18.9309 32.5778 19.7238 33.4474 20.7314C33.7065 21.0316 34.0819 21.216 34.4781 21.1964C35.9301 21.1248 37.6511 21.1071 39.5057 21.2047C39.9038 21.2257 40.2817 21.0406 40.5418 20.7384C41.4119 19.7275 42.5915 18.932 44.0042 18.4447C44.444 18.2821 45.2036 18.0386 47.0868 17.7346C48.2258 17.5508 50.9357 17.4499 52.765 17.4139C54.6531 17.3768 56.6833 17.3782 58.2013 17.3793L58.8894 17.3796C61.4912 17.3796 64.058 18.0912 65.0759 18.6223C67.366 19.6282 69.4851 21.5513 69.6371 24.8607C69.6434 24.9102 69.6475 24.9601 69.6492 25.0103C69.8296 30.1009 66.1778 37.3816 56.8676 39.3768C56.2132 39.517 55.57 39.619 54.9249 39.6959C54.8936 39.6997 54.8621 39.7028 54.8306 39.7054C45.2316 40.4841 38.9553 33.3134 38.8731 25.6529C38.869 25.2736 38.5764 24.9533 38.1973 24.9425C37.3488 24.9182 36.5435 24.9195 35.801 24.9378C35.4205 24.9472 35.1263 25.2684 35.1224 25.6491C35.0455 33.3109 28.7628 40.484 19.1646 39.7054C19.1331 39.7028 19.1016 39.6997 19.0703 39.6959C18.4252 39.619 17.782 39.517 17.1276 39.3768C7.81737 37.3816 4.16555 30.1009 4.34594 25.0103C4.34772 24.9601 4.35179 24.9102 4.3581 24.8607C4.51007 21.5513 6.62922 19.6282 8.91925 18.6223C9.93714 18.0912 12.504 17.3796 15.1058 17.3796L15.7939 17.3793C17.3119 17.3782 19.3421 17.3768 21.2301 17.4139C23.0595 17.4499 25.7694 17.5508 26.9084 17.7346C28.7916 18.0386 29.5512 18.2821 29.991 18.4447ZM7.44558 23.1761C7.99222 22.0236 9.00687 21.0818 10.3729 20.3692C11.1409 19.9685 12.9963 19.2732 15.1058 19.2732L15.7855 19.2728C18.8319 19.2707 23.8233 19.2673 25.6929 19.569C27.5052 19.8615 28.0912 20.0745 28.3418 20.1682C29.3689 20.518 30.2644 21.0941 30.9469 21.8254L31.6944 25.2614C31.8727 25.2323 32.0922 25.2014 32.3485 25.1705C32.3491 25.2018 32.3494 25.2331 32.3494 25.2645L32.3491 25.3236C32.7421 33.2972 25.7271 38.103 19.1646 37.5705C18.5845 37.5013 18.0181 37.4111 17.4491 37.2891C10.536 35.8076 7.63359 31.0931 7.08143 26.9208C6.9964 26.2782 6.9671 25.6486 6.98748 25.0456L6.98806 25.0286L6.99247 25.0288L6.99329 25.0103C7.02373 24.3502 7.179 23.7381 7.44558 23.1761ZM41.6465 25.1826C41.646 25.2098 41.6458 25.2371 41.6458 25.2645L41.6461 25.3236C41.2531 33.2972 48.2681 38.103 54.8306 37.5705C55.4107 37.5013 55.9771 37.4111 56.5461 37.2891C63.4592 35.8076 66.3616 31.0931 66.9138 26.9208C66.9988 26.2782 67.0281 25.6486 67.0077 25.0456L67.0071 25.0286L67.0027 25.0288L67.0019 25.0103C66.9715 24.3502 66.8162 23.7381 66.5496 23.1761C66.003 22.0236 64.9883 21.0818 63.6223 20.3692C62.8543 19.9685 60.9989 19.2732 58.8894 19.2732L58.2097 19.2728C55.1632 19.2707 50.1719 19.2673 48.3023 19.569C46.49 19.8615 45.904 20.0745 45.6533 20.1682C44.587 20.5314 43.6625 21.1385 42.9709 21.91L42.3725 25.272C42.1295 25.2396 41.8874 25.2098 41.6465 25.1826Z" fill="url(#paint9_radial_102_1997)"/>
<path fill-rule="evenodd" clip-rule="evenodd" d="M29.991 18.4447C31.4004 18.9309 32.5778 19.7238 33.4474 20.7314C33.7065 21.0316 34.0819 21.216 34.4781 21.1964C35.9301 21.1248 37.6511 21.1071 39.5057 21.2047C39.9038 21.2257 40.2817 21.0406 40.5418 20.7384C41.4119 19.7275 42.5915 18.932 44.0042 18.4447C44.444 18.2821 45.2036 18.0386 47.0868 17.7346C48.2258 17.5508 50.9357 17.4499 52.765 17.4139C54.6531 17.3768 56.6833 17.3782 58.2013 17.3793L58.8894 17.3796C61.4912 17.3796 64.058 18.0912 65.0759 18.6223C67.366 19.6282 69.4851 21.5513 69.6371 24.8607C69.6434 24.9102 69.6475 24.9601 69.6492 25.0103C69.8296 30.1009 66.1778 37.3816 56.8676 39.3768C56.2132 39.517 55.57 39.619 54.9249 39.6959C54.8936 39.6997 54.8621 39.7028 54.8306 39.7054C45.2316 40.4841 38.9553 33.3134 38.8731 25.6529C38.869 25.2736 38.5764 24.9533 38.1973 24.9425C37.3488 24.9182 36.5435 24.9195 35.801 24.9378C35.4205 24.9472 35.1263 25.2684 35.1224 25.6491C35.0455 33.3109 28.7628 40.484 19.1646 39.7054C19.1331 39.7028 19.1016 39.6997 19.0703 39.6959C18.4252 39.619 17.782 39.517 17.1276 39.3768C7.81737 37.3816 4.16555 30.1009 4.34594 25.0103C4.34772 24.9601 4.35179 24.9102 4.3581 24.8607C4.51007 21.5513 6.62922 19.6282 8.91925 18.6223C9.93714 18.0912 12.504 17.3796 15.1058 17.3796L15.7939 17.3793C17.3119 17.3782 19.3421 17.3768 21.2301 17.4139C23.0595 17.4499 25.7694 17.5508 26.9084 17.7346C28.7916 18.0386 29.5512 18.2821 29.991 18.4447ZM7.44558 23.1761C7.99222 22.0236 9.00687 21.0818 10.3729 20.3692C11.1409 19.9685 12.9963 19.2732 15.1058 19.2732L15.7855 19.2728C18.8319 19.2707 23.8233 19.2673 25.6929 19.569C27.5052 19.8615 28.0912 20.0745 28.3418 20.1682C29.3689 20.518 30.2644 21.0941 30.9469 21.8254L31.6944 25.2614C31.8727 25.2323 32.0922 25.2014 32.3485 25.1705C32.3491 25.2018 32.3494 25.2331 32.3494 25.2645L32.3491 25.3236C32.7421 33.2972 25.7271 38.103 19.1646 37.5705C18.5845 37.5013 18.0181 37.4111 17.4491 37.2891C10.536 35.8076 7.63359 31.0931 7.08143 26.9208C6.9964 26.2782 6.9671 25.6486 6.98748 25.0456L6.98806 25.0286L6.99247 25.0288L6.99329 25.0103C7.02373 24.3502 7.179 23.7381 7.44558 23.1761ZM41.6465 25.1826C41.646 25.2098 41.6458 25.2371 41.6458 25.2645L41.6461 25.3236C41.2531 33.2972 48.2681 38.103 54.8306 37.5705C55.4107 37.5013 55.9771 37.4111 56.5461 37.2891C63.4592 35.8076 66.3616 31.0931 66.9138 26.9208C66.9988 26.2782 67.0281 25.6486 67.0077 25.0456L67.0071 25.0286L67.0027 25.0288L67.0019 25.0103C66.9715 24.3502 66.8162 23.7381 66.5496 23.1761C66.003 22.0236 64.9883 21.0818 63.6223 20.3692C62.8543 19.9685 60.9989 19.2732 58.8894 19.2732L58.2097 19.2728C55.1632 19.2707 50.1719 19.2673 48.3023 19.569C46.49 19.8615 45.904 20.0745 45.6533 20.1682C44.587 20.5314 43.6625 21.1385 42.9709 21.91L42.3725 25.272C42.1295 25.2396 41.8874 25.2098 41.6465 25.1826Z" fill="url(#paint10_radial_102_1997)"/>
<path fill-rule="evenodd" clip-rule="evenodd" d="M29.991 18.4447C31.4004 18.9309 32.5778 19.7238 33.4474 20.7314C33.7065 21.0316 34.0819 21.216 34.4781 21.1964C35.9301 21.1248 37.6511 21.1071 39.5057 21.2047C39.9038 21.2257 40.2817 21.0406 40.5418 20.7384C41.4119 19.7275 42.5915 18.932 44.0042 18.4447C44.444 18.2821 45.2036 18.0386 47.0868 17.7346C48.2258 17.5508 50.9357 17.4499 52.765 17.4139C54.6531 17.3768 56.6833 17.3782 58.2013 17.3793L58.8894 17.3796C61.4912 17.3796 64.058 18.0912 65.0759 18.6223C67.366 19.6282 69.4851 21.5513 69.6371 24.8607C69.6434 24.9102 69.6475 24.9601 69.6492 25.0103C69.8296 30.1009 66.1778 37.3816 56.8676 39.3768C56.2132 39.517 55.57 39.619 54.9249 39.6959C54.8936 39.6997 54.8621 39.7028 54.8306 39.7054C45.2316 40.4841 38.9553 33.3134 38.8731 25.6529C38.869 25.2736 38.5764 24.9533 38.1973 24.9425C37.3488 24.9182 36.5435 24.9195 35.801 24.9378C35.4205 24.9472 35.1263 25.2684 35.1224 25.6491C35.0455 33.3109 28.7628 40.484 19.1646 39.7054C19.1331 39.7028 19.1016 39.6997 19.0703 39.6959C18.4252 39.619 17.782 39.517 17.1276 39.3768C7.81737 37.3816 4.16555 30.1009 4.34594 25.0103C4.34772 24.9601 4.35179 24.9102 4.3581 24.8607C4.51007 21.5513 6.62922 19.6282 8.91925 18.6223C9.93714 18.0912 12.504 17.3796 15.1058 17.3796L15.7939 17.3793C17.3119 17.3782 19.3421 17.3768 21.2301 17.4139C23.0595 17.4499 25.7694 17.5508 26.9084 17.7346C28.7916 18.0386 29.5512 18.2821 29.991 18.4447ZM7.44558 23.1761C7.99222 22.0236 9.00687 21.0818 10.3729 20.3692C11.1409 19.9685 12.9963 19.2732 15.1058 19.2732L15.7855 19.2728C18.8319 19.2707 23.8233 19.2673 25.6929 19.569C27.5052 19.8615 28.0912 20.0745 28.3418 20.1682C29.3689 20.518 30.2644 21.0941 30.9469 21.8254L31.6944 25.2614C31.8727 25.2323 32.0922 25.2014 32.3485 25.1705C32.3491 25.2018 32.3494 25.2331 32.3494 25.2645L32.3491 25.3236C32.7421 33.2972 25.7271 38.103 19.1646 37.5705C18.5845 37.5013 18.0181 37.4111 17.4491 37.2891C10.536 35.8076 7.63359 31.0931 7.08143 26.9208C6.9964 26.2782 6.9671 25.6486 6.98748 25.0456L6.98806 25.0286L6.99247 25.0288L6.99329 25.0103C7.02373 24.3502 7.179 23.7381 7.44558 23.1761ZM41.6465 25.1826C41.646 25.2098 41.6458 25.2371 41.6458 25.2645L41.6461 25.3236C41.2531 33.2972 48.2681 38.103 54.8306 37.5705C55.4107 37.5013 55.9771 37.4111 56.5461 37.2891C63.4592 35.8076 66.3616 31.0931 66.9138 26.9208C66.9988 26.2782 67.0281 25.6486 67.0077 25.0456L67.0071 25.0286L67.0027 25.0288L67.0019 25.0103C66.9715 24.3502 66.8162 23.7381 66.5496 23.1761C66.003 22.0236 64.9883 21.0818 63.6223 20.3692C62.8543 19.9685 60.9989 19.2732 58.8894 19.2732L58.2097 19.2728C55.1632 19.2707 50.1719 19.2673 48.3023 19.569C46.49 19.8615 45.904 20.0745 45.6533 20.1682C44.587 20.5314 43.6625 21.1385 42.9709 21.91L42.3725 25.272C42.1295 25.2396 41.8874 25.2098 41.6465 25.1826Z" fill="url(#paint11_radial_102_1997)"/>
<path d="M10.373 20.3692C11.1411 19.9684 12.9965 19.2732 15.106 19.2732C15.3189 19.2732 15.5463 19.273 15.7857 19.2728C18.8321 19.2707 23.8234 19.2673 25.6931 19.569C27.5054 19.8615 28.0914 20.0745 28.342 20.1682C30.6893 20.9678 32.3496 22.9488 32.3496 25.2645L32.3492 25.3236C32.7423 33.2972 25.7273 38.103 19.1648 37.5705C18.5846 37.5013 18.0183 37.411 17.4493 37.2891C9.46107 35.5772 6.82807 29.5485 6.98828 25.0278L6.99265 25.0288C7.07869 23.0063 8.33472 21.4326 10.373 20.3692Z" fill="url(#paint12_radial_102_1997)"/>
<path d="M10.373 20.3692C11.1411 19.9684 12.9965 19.2732 15.106 19.2732C15.3189 19.2732 15.5463 19.273 15.7857 19.2728C18.8321 19.2707 23.8234 19.2673 25.6931 19.569C27.5054 19.8615 28.0914 20.0745 28.342 20.1682C30.6893 20.9678 32.3496 22.9488 32.3496 25.2645L32.3492 25.3236C32.7423 33.2972 25.7273 38.103 19.1648 37.5705C18.5846 37.5013 18.0183 37.411 17.4493 37.2891C9.46107 35.5772 6.82807 29.5485 6.98828 25.0278L6.99265 25.0288C7.07869 23.0063 8.33472 21.4326 10.373 20.3692Z" fill="url(#paint13_radial_102_1997)"/>
<path d="M10.373 20.3692C11.1411 19.9684 12.9965 19.2732 15.106 19.2732C15.3189 19.2732 15.5463 19.273 15.7857 19.2728C18.8321 19.2707 23.8234 19.2673 25.6931 19.569C27.5054 19.8615 28.0914 20.0745 28.342 20.1682C30.6893 20.9678 32.3496 22.9488 32.3496 25.2645L32.3492 25.3236C32.7423 33.2972 25.7273 38.103 19.1648 37.5705C18.5846 37.5013 18.0183 37.411 17.4493 37.2891C9.46107 35.5772 6.82807 29.5485 6.98828 25.0278L6.99265 25.0288C7.07869 23.0063 8.33472 21.4326 10.373 20.3692Z" fill="url(#paint14_radial_102_1997)"/>
<path d="M10.373 20.3692C11.1411 19.9684 12.9965 19.2732 15.106 19.2732C15.3189 19.2732 15.5463 19.273 15.7857 19.2728C18.8321 19.2707 23.8234 19.2673 25.6931 19.569C27.5054 19.8615 28.0914 20.0745 28.342 20.1682C30.6893 20.9678 32.3496 22.9488 32.3496 25.2645L32.3492 25.3236C32.7423 33.2972 25.7273 38.103 19.1648 37.5705C18.5846 37.5013 18.0183 37.411 17.4493 37.2891C9.46107 35.5772 6.82807 29.5485 6.98828 25.0278L6.99265 25.0288C7.07869 23.0063 8.33472 21.4326 10.373 20.3692Z" fill="url(#paint15_radial_102_1997)"/>
<ellipse cx="3.1895" cy="3.66986" rx="3.1895" ry="3.66986" transform="matrix(0.921978 -0.387242 0.488958 0.872307 21.6296 23.0615)" fill="url(#paint16_linear_102_1997)"/>
<path d="M63.6223 20.3692C62.8542 19.9684 60.9989 19.2732 58.8894 19.2732C58.6765 19.2732 58.4491 19.273 58.2097 19.2728C55.1632 19.2707 50.1719 19.2673 48.3022 19.569C46.49 19.8615 45.904 20.0745 45.6533 20.1682C43.3061 20.9678 41.6458 22.9488 41.6458 25.2645L41.6461 25.3236C41.253 33.2972 48.2681 38.103 54.8306 37.5705C55.4107 37.5013 55.9771 37.411 56.5461 37.2891C64.5343 35.5772 67.1673 29.5485 67.0071 25.0278L67.0027 25.0288C66.9167 23.0063 65.6606 21.4326 63.6223 20.3692Z" fill="url(#paint17_radial_102_1997)"/>
<path d="M63.6223 20.3692C62.8542 19.9684 60.9989 19.2732 58.8894 19.2732C58.6765 19.2732 58.4491 19.273 58.2097 19.2728C55.1632 19.2707 50.1719 19.2673 48.3022 19.569C46.49 19.8615 45.904 20.0745 45.6533 20.1682C43.3061 20.9678 41.6458 22.9488 41.6458 25.2645L41.6461 25.3236C41.253 33.2972 48.2681 38.103 54.8306 37.5705C55.4107 37.5013 55.9771 37.411 56.5461 37.2891C64.5343 35.5772 67.1673 29.5485 67.0071 25.0278L67.0027 25.0288C66.9167 23.0063 65.6606 21.4326 63.6223 20.3692Z" fill="url(#paint18_radial_102_1997)"/>
<path d="M63.6223 20.3692C62.8542 19.9684 60.9989 19.2732 58.8894 19.2732C58.6765 19.2732 58.4491 19.273 58.2097 19.2728C55.1632 19.2707 50.1719 19.2673 48.3022 19.569C46.49 19.8615 45.904 20.0745 45.6533 20.1682C43.3061 20.9678 41.6458 22.9488 41.6458 25.2645L41.6461 25.3236C41.253 33.2972 48.2681 38.103 54.8306 37.5705C55.4107 37.5013 55.9771 37.411 56.5461 37.2891C64.5343 35.5772 67.1673 29.5485 67.0071 25.0278L67.0027 25.0288C66.9167 23.0063 65.6606 21.4326 63.6223 20.3692Z" fill="url(#paint19_radial_102_1997)"/>
<path d="M63.6223 20.3692C62.8542 19.9684 60.9989 19.2732 58.8894 19.2732C58.6765 19.2732 58.4491 19.273 58.2097 19.2728C55.1632 19.2707 50.1719 19.2673 48.3022 19.569C46.49 19.8615 45.904 20.0745 45.6533 20.1682C43.3061 20.9678 41.6458 22.9488 41.6458 25.2645L41.6461 25.3236C41.253 33.2972 48.2681 38.103 54.8306 37.5705C55.4107 37.5013 55.9771 37.411 56.5461 37.2891C64.5343 35.5772 67.1673 29.5485 67.0071 25.0278L67.0027 25.0288C66.9167 23.0063 65.6606 21.4326 63.6223 20.3692Z" fill="url(#paint20_radial_102_1997)"/>
<ellipse cx="3.1895" cy="3.66986" rx="3.1895" ry="3.66986" transform="matrix(0.921978 -0.387242 0.488958 0.872307 56.7043 23.0615)" fill="url(#paint21_linear_102_1997)"/>
<path d="M26.7778 43.6929C26.7778 43.6929 29.8438 47.48 36.9976 47.48C44.1514 47.48 47.2173 43.6929 47.2173 43.6929" stroke="url(#paint22_radial_102_1997)" stroke-width="2.3" stroke-linecap="round" stroke-linejoin="round"/>
<defs>
<filter id="filter0_d_102_1997" x="-3.75" y="-2.73389" width="81.5" height="72.0938" filterUnits="userSpaceOnUse" color-interpolation-filters="sRGB">
<feFlood flood-opacity="0" result="BackgroundImageFix"/>
<feColorMatrix in="SourceAlpha" type="matrix" values="0 0 0 0 0 0 0 0 0 0 0 0 0 0 0 0 0 0 127 0" result="hardAlpha"/>
<feOffset dy="2.875"/>
<feGaussianBlur stdDeviation="2.875"/>
<feComposite in2="hardAlpha" operator="out"/>
<feColorMatrix type="matrix" values="0 0 0 0 0 0 0 0 0 0 0 0 0 0 0 0 0 0 0.25 0"/>
<feBlend mode="normal" in2="BackgroundImageFix" result="effect1_dropShadow_102_1997"/>
<feBlend mode="normal" in="SourceGraphic" in2="effect1_dropShadow_102_1997" result="shape"/>
</filter>
<filter id="filter1_f_102_1997" x="8.38196" y="17.8925" width="60.012" height="25.1448" filterUnits="userSpaceOnUse" color-interpolation-filters="sRGB">
<feFlood flood-opacity="0" result="BackgroundImageFix"/>
<feBlend mode="normal" in="SourceGraphic" in2="BackgroundImageFix" result="shape"/>
<feGaussianBlur stdDeviation="0.69" result="effect1_foregroundBlur_102_1997"/>
</filter>
<radialGradient id="paint0_radial_102_1997" cx="0" cy="0" r="1" gradientUnits="userSpaceOnUse" gradientTransform="translate(57.7812 17.1831) rotate(136.969) scale(76.3094 76.3463)">
<stop stop-color="#FFF478"/>
<stop offset="0.474827" stop-color="#FFB02E"/>
<stop offset="1" stop-color="#F70A8D"/>
</radialGradient>
<radialGradient id="paint1_radial_102_1997" cx="0" cy="0" r="1" gradientUnits="userSpaceOnUse" gradientTransform="translate(57.7812 17.1831) rotate(136.005) scale(79.0583 79.4811)">
<stop stop-color="#FFF478"/>
<stop offset="0.474827" stop-color="#FFB02E"/>
<stop offset="1" stop-color="#F70A8D"/>
</radialGradient>
<radialGradient id="paint2_radial_102_1997" cx="0" cy="0" r="1" gradientUnits="userSpaceOnUse" gradientTransform="translate(37 23.8105) rotate(103.01) scale(34.0102 49.6834)">
<stop offset="0.787821" stop-color="#F59639" stop-opacity="0"/>
<stop offset="0.972509" stop-color="#FF7DCE"/>
</radialGradient>
<radialGradient id="paint3_radial_102_1997" cx="0" cy="0" r="1" gradientUnits="userSpaceOnUse" gradientTransform="translate(41.375 26.6509) rotate(139.12) scale(83.9033 83.0372)">
<stop offset="0.314853" stop-opacity="0"/>
<stop offset="1"/>
</radialGradient>
<radialGradient id="paint4_radial_102_1997" cx="0" cy="0" r="1" gradientUnits="userSpaceOnUse" gradientTransform="translate(37 32.3315) rotate(75.8532) scale(53.7014 61.1087)">
<stop offset="0.507903" stop-color="#7D6133" stop-opacity="0"/>
<stop offset="1" stop-color="#715B32"/>
</radialGradient>
<radialGradient id="paint5_radial_102_1997" cx="0" cy="0" r="1" gradientUnits="userSpaceOnUse" gradientTransform="translate(38.0937 31.3848) rotate(51.7739) scale(26.5145 20.0714)">
<stop stop-color="#FFB849"/>
<stop offset="1" stop-color="#FFB847" stop-opacity="0"/>
</radialGradient>
<radialGradient id="paint6_radial_102_1997" cx="0" cy="0" r="1" gradientUnits="userSpaceOnUse" gradientTransform="translate(46.8437 34.2251) rotate(8.56122) scale(25.4397 22.1845)">
<stop stop-color="#FFA64B"/>
<stop offset="0.900412" stop-color="#FFAE46" stop-opacity="0"/>
</radialGradient>
<radialGradient id="paint7_radial_102_1997" cx="0" cy="0" r="1" gradientUnits="userSpaceOnUse" gradientTransform="translate(40.2812 28.5444) rotate(39.8644) scale(121.122 119.258)">
<stop offset="0.185425" stop-opacity="0"/>
<stop offset="1" stop-opacity="0.4"/>
</radialGradient>
<linearGradient id="paint8_linear_102_1997" x1="51.6264" y1="30.4648" x2="22.1183" y2="43.4653" gradientUnits="userSpaceOnUse">
<stop stop-color="#E78F00"/>
<stop offset="1" stop-color="#D07000"/>
</linearGradient>
<radialGradient id="paint9_radial_102_1997" cx="0" cy="0" r="1" gradientUnits="userSpaceOnUse" gradientTransform="translate(48.2083 18.6075) rotate(77.1858) scale(23.4244 55.3846)">
<stop stop-color="#5F5B9B"/>
<stop offset="1" stop-color="#5C3085"/>
</radialGradient>
<radialGradient id="paint10_radial_102_1997" cx="0" cy="0" r="1" gradientUnits="userSpaceOnUse" gradientTransform="translate(54.2583 28.5698) rotate(76.2763) scale(10.5161 13.4552)">
<stop offset="0.776042" stop-color="#77579C"/>
<stop offset="0.9375" stop-color="#77579C" stop-opacity="0"/>
</radialGradient>
<radialGradient id="paint11_radial_102_1997" cx="0" cy="0" r="1" gradientUnits="userSpaceOnUse" gradientTransform="translate(49.8489 26.6551) rotate(-126.599) scale(9.28707 7.17366)">
<stop offset="0.769354" stop-color="#4E3D92"/>
<stop offset="1" stop-color="#534687" stop-opacity="0"/>
</radialGradient>
<radialGradient id="paint12_radial_102_1997" cx="0" cy="0" r="1" gradientUnits="userSpaceOnUse" gradientTransform="translate(25.3767 24.8799) rotate(125.661) scale(11.7257 14.0773)">
<stop stop-color="#4C3D70"/>
<stop offset="1" stop-color="#361C5D"/>
</radialGradient>
<radialGradient id="paint13_radial_102_1997" cx="0" cy="0" r="1" gradientUnits="userSpaceOnUse" gradientTransform="translate(22.7109 25.1757) rotate(86.6942) scale(14.2253 24.3825)">
<stop offset="0.647365" stop-color="#5B2B84" stop-opacity="0"/>
<stop offset="1" stop-color="#5B2B84"/>
</radialGradient>
<radialGradient id="paint14_radial_102_1997" cx="0" cy="0" r="1" gradientUnits="userSpaceOnUse" gradientTransform="translate(19.0195 39.4957) rotate(-100.957) scale(21.9391 24.8713)">
<stop offset="0.858612" stop-color="#2E1D57" stop-opacity="0"/>
<stop offset="1" stop-color="#20143D"/>
</radialGradient>
<radialGradient id="paint15_radial_102_1997" cx="0" cy="0" r="1" gradientUnits="userSpaceOnUse" gradientTransform="translate(21.1387 23.7556) rotate(104.052) scale(14.6398 15.638)">
<stop offset="0.872281" stop-color="#2E1D57" stop-opacity="0"/>
<stop offset="1" stop-color="#20143D" stop-opacity="0.6"/>
</radialGradient>
<linearGradient id="paint16_linear_102_1997" x1="4.5851" y1="1.03833" x2="2.02733" y2="7.38174" gradientUnits="userSpaceOnUse">
<stop stop-color="white"/>
<stop offset="0.973958" stop-color="white" stop-opacity="0"/>
</linearGradient>
<radialGradient id="paint17_radial_102_1997" cx="0" cy="0" r="1" gradientUnits="userSpaceOnUse" gradientTransform="translate(55.9331 24.1106) rotate(125.072) scale(13.0865 20.8289)">
<stop stop-color="#4C3D70"/>
<stop offset="1" stop-color="#361C5D"/>
</radialGradient>
<radialGradient id="paint18_radial_102_1997" cx="0" cy="0" r="1" gradientUnits="userSpaceOnUse" gradientTransform="translate(51.2844 25.1757) rotate(93.3058) scale(14.2253 24.3825)">
<stop offset="0.647365" stop-color="#5B2B84" stop-opacity="0"/>
<stop offset="1" stop-color="#5B2B84"/>
</radialGradient>
<radialGradient id="paint19_radial_102_1997" cx="0" cy="0" r="1" gradientUnits="userSpaceOnUse" gradientTransform="translate(54.3221 36.9513) rotate(-75.7512) scale(19.5976 22.0794)">
<stop offset="0.858612" stop-color="#2E1D57" stop-opacity="0"/>
<stop offset="1" stop-color="#20143D"/>
</radialGradient>
<radialGradient id="paint20_radial_102_1997" cx="0" cy="0" r="1" gradientUnits="userSpaceOnUse" gradientTransform="translate(52.8567 23.7556) rotate(75.9475) scale(14.6398 15.638)">
<stop offset="0.872281" stop-color="#2E1D57" stop-opacity="0"/>
<stop offset="1" stop-color="#20143D" stop-opacity="0.6"/>
</radialGradient>
<linearGradient id="paint21_linear_102_1997" x1="4.5851" y1="1.03833" x2="2.02733" y2="7.38174" gradientUnits="userSpaceOnUse">
<stop stop-color="white"/>
<stop offset="0.973958" stop-color="white" stop-opacity="0"/>
</linearGradient>
<radialGradient id="paint22_radial_102_1997" cx="0" cy="0" r="1" gradientUnits="userSpaceOnUse" gradientTransform="translate(36.9976 41.4485) rotate(90) scale(20.7108 36.8996)">
<stop offset="0.145833" stop-color="#2E1529"/>
<stop offset="0.276042" stop-color="#503A4A"/>
<stop offset="0.342857" stop-color="#4B2744"/>
</radialGradient>
</defs>
</svg>
