<svg width="25" height="24" viewBox="0 0 25 24" fill="none" xmlns="http://www.w3.org/2000/svg">
<path fill-rule="evenodd" clip-rule="evenodd" d="M12.8403 9.16992C11.2745 9.16992 10.0103 10.4341 10.0103 11.9999C10.0103 12.5103 10.1442 12.9864 10.3806 13.399L14.2394 9.54021C13.8268 9.30385 13.3507 9.16992 12.8403 9.16992ZM8.51031 11.9999C8.51031 9.60571 10.4461 7.66992 12.8403 7.66992C14.0381 7.66992 15.1164 8.15536 15.9006 8.93959C16.1935 9.23249 16.1935 9.70736 15.9006 10.0003L10.8406 15.0603C10.5478 15.3531 10.0729 15.3531 9.77999 15.0603C8.99575 14.276 8.51031 13.1977 8.51031 11.9999Z" fill="#292D32"/>
<path fill-rule="evenodd" clip-rule="evenodd" d="M3.09785 9.00682C5.48877 5.24846 8.99238 2.97986 12.8404 2.97986C15.09 2.97986 17.2458 3.76347 19.112 5.17109C19.4427 5.42053 19.5086 5.89081 19.2591 6.2215C19.0097 6.55219 18.5394 6.61806 18.2087 6.36862C16.5749 5.13625 14.7307 4.47986 12.8404 4.47986C9.62851 4.47986 6.55225 6.37106 4.36318 9.8124L4.36255 9.81339C4.00797 10.3689 3.80536 11.1641 3.80536 12.0049C3.80536 12.8456 4.00797 13.6408 4.36255 14.1963L4.3629 14.1969C5.11667 15.38 5.98947 16.3929 6.92939 17.2012C7.24344 17.4713 7.27908 17.9448 7.009 18.2589C6.73891 18.5729 6.26538 18.6086 5.95133 18.3385C4.89125 17.4268 3.92405 16.2997 3.09782 15.0028C2.55265 14.1484 2.30536 13.0539 2.30536 12.0049C2.30536 10.9558 2.55266 9.86124 3.09785 9.00682Z" fill="#292D32"/>
<path fill-rule="evenodd" clip-rule="evenodd" d="M20.4203 7.34543C20.743 7.08581 21.2151 7.13701 21.4747 7.45977C21.8586 7.93703 22.2358 8.44989 22.5836 8.99797C23.1283 9.85221 23.3753 10.9463 23.3753 11.9948C23.3753 13.0439 23.128 14.1385 22.5828 14.9929C20.1919 18.7512 16.6883 21.0198 12.8403 21.0198C11.5038 21.0198 10.1952 20.7372 8.96928 20.2211C8.58753 20.0603 8.40836 19.6205 8.5691 19.2388C8.72984 18.857 9.16962 18.6779 9.55137 18.8386C10.6055 19.2825 11.7169 19.5198 12.8403 19.5198C16.0522 19.5198 19.1284 17.6286 21.3175 14.1873L21.3181 14.1863C21.6727 13.6308 21.8753 12.8356 21.8753 11.9948C21.8753 11.1541 21.6727 10.3589 21.3181 9.80336L21.3171 9.8017C21.0049 9.30978 20.662 8.84264 20.3059 8.3999C20.0463 8.07714 20.0975 7.60504 20.4203 7.34543Z" fill="#292D32"/>
<path fill-rule="evenodd" clip-rule="evenodd" d="M16.4863 11.9623C16.8937 12.0374 17.163 12.4285 17.0879 12.8358C16.7715 14.5517 15.3822 15.941 13.6663 16.2574C13.259 16.3325 12.8679 16.0632 12.7928 15.6558C12.7177 15.2485 12.987 14.8574 13.3943 14.7823C14.4985 14.5787 15.4092 13.668 15.6128 12.5638C15.6879 12.1565 16.079 11.8872 16.4863 11.9623Z" fill="#292D32"/>
<path fill-rule="evenodd" clip-rule="evenodd" d="M10.8407 13.9996C11.1336 14.2925 11.1336 14.7673 10.8407 15.0602L3.37066 22.5302C3.07777 22.8231 2.6029 22.8231 2.31 22.5302C2.01711 22.2373 2.01711 21.7625 2.31 21.4696L9.78 13.9996C10.0729 13.7067 10.5478 13.7067 10.8407 13.9996Z" fill="#292D32"/>
<path fill-rule="evenodd" clip-rule="evenodd" d="M23.3707 1.46955C23.6636 1.76244 23.6636 2.23731 23.3707 2.53021L15.9007 10.0002C15.6078 10.2931 15.1329 10.2931 14.84 10.0002C14.5471 9.70732 14.5471 9.23244 14.84 8.93955L22.31 1.46955C22.6029 1.17665 23.0778 1.17665 23.3707 1.46955Z" fill="#292D32"/>
</svg>
