<svg width="25" height="24" viewBox="0 0 25 24" fill="none" xmlns="http://www.w3.org/2000/svg">
<path d="M24.8403 8.24993C24.8403 12.8063 21.1467 16.4999 16.5903 16.4999C16.0644 16.4999 15.5502 16.4501 15.0516 16.356L13.926 17.6223C13.8205 17.741 13.691 17.8361 13.546 17.9012C13.4011 17.9662 13.244 17.9999 13.0852 17.9999H11.3403V19.8749C11.3403 20.4962 10.8367 20.9999 10.2153 20.9999H8.34033V22.8749C8.34033 23.4962 7.83666 23.9999 7.21533 23.9999H1.96533C1.344 23.9999 0.840332 23.4962 0.840332 22.8749V19.2159C0.840332 18.9175 0.958879 18.6313 1.16982 18.4203L8.75428 10.8359C8.48602 10.0224 8.34033 9.15321 8.34033 8.24988C8.34033 3.69353 12.0339 -7.51949e-05 16.5903 -0.00012207C21.1601 -0.000168945 24.8403 3.68008 24.8403 8.24993ZM16.5903 5.99988C16.5903 7.24253 17.5977 8.24988 18.8403 8.24988C20.083 8.24988 21.0903 7.24253 21.0903 5.99988C21.0903 4.75722 20.083 3.74988 18.8403 3.74988C17.5977 3.74988 16.5903 4.75722 16.5903 5.99988Z" fill="#0D0D0E"/>
</svg>
