<svg width="26" height="25" viewBox="0 0 26 25" fill="none" xmlns="http://www.w3.org/2000/svg">
<path d="M13.3403 14.0625C17.2222 14.0625 20.3716 10.9131 20.3716 7.03125C20.3716 3.14941 17.2222 0 13.3403 0C9.4585 0 6.30908 3.14941 6.30908 7.03125C6.30908 10.9131 9.4585 14.0625 13.3403 14.0625ZM19.5903 15.625H16.8999C15.8159 16.123 14.6099 16.4062 13.3403 16.4062C12.0708 16.4062 10.8696 16.123 9.78076 15.625H7.09033C3.63818 15.625 0.840332 18.4229 0.840332 21.875V22.6562C0.840332 23.9502 1.89014 25 3.18408 25H23.4966C24.7905 25 25.8403 23.9502 25.8403 22.6562V21.875C25.8403 18.4229 23.0425 15.625 19.5903 15.625Z" fill="#0D0D0E"/>
</svg>
