<svg width="318" height="308" viewBox="0 0 318 308" fill="none" xmlns="http://www.w3.org/2000/svg">
<path d="M86.6014 77.6012L5.20074 127.127C3.55612 128.131 2.22671 129.443 1.32264 130.954C0.418564 132.465 -0.0341582 134.13 0.00200855 135.813C0.0381753 137.496 0.562173 139.148 1.53059 140.632C2.49901 142.115 3.88397 143.388 5.57072 144.344L291.09 305.681C292.642 306.566 294.392 307.189 296.239 307.515C298.086 307.841 299.993 307.864 301.851 307.581C303.708 307.299 305.48 306.717 307.062 305.869C308.644 305.022 310.006 303.925 311.07 302.643C312.659 300.688 313.556 298.409 313.66 296.06L317.483 29.3924C317.498 27.7107 317.038 26.0491 316.139 24.5379C315.24 23.0268 313.927 21.7071 312.303 20.6824L284.676 3.16118C283.309 2.28728 281.745 1.64369 280.074 1.26734C278.403 0.890988 276.659 0.78929 274.94 0.968079C273.221 1.14687 271.562 1.60262 270.058 2.30919C268.554 3.01576 267.235 3.95924 266.176 5.08548C264.321 6.97248 263.357 9.3461 263.463 11.7699L264.573 238.23L107.445 146.066C106.064 145.257 104.891 144.233 103.994 143.05C103.098 141.868 102.494 140.552 102.219 139.178C101.944 137.804 102.003 136.398 102.391 135.043C102.78 133.687 103.492 132.408 104.485 131.279C105.168 130.532 105.954 129.852 106.828 129.253L130.262 113.555C132.902 111.778 134.579 109.214 134.926 106.425C135.272 103.635 134.261 100.846 132.112 98.6672C131.86 98.3727 131.57 98.1011 131.248 97.857L108.185 78.9178C105.38 76.6055 101.655 75.1998 97.6918 74.958C93.7284 74.7162 89.7914 75.6545 86.6014 77.6012Z" fill="#3718AE"/>
</svg>
