<svg width="49" height="53" viewBox="0 0 49 53" fill="none" xmlns="http://www.w3.org/2000/svg">
<path d="M4.32997 20.0533L34.6703 1.41793C36.502 0.289779 38.8045 -0.194627 41.0713 0.0712822C43.338 0.337191 45.3832 1.33163 46.757 2.83584C47.8731 4.06505 48.4785 5.5563 48.4837 7.08955V45.373C48.4837 47.2533 47.5741 49.0565 45.955 50.386C44.3359 51.7156 42.1401 52.4625 39.8503 52.4625C37.9257 52.4557 36.0591 51.921 34.5469 50.9433L4.20667 31.7003C2.33393 30.5003 1.11454 28.7412 0.814219 26.8063C0.5139 24.8713 1.157 22.9172 2.60334 21.3699C3.14766 20.9042 3.72413 20.4646 4.32997 20.0533Z" fill="#3718AE"/>
</svg>
