<svg width="141" height="221" viewBox="0 0 141 221" fill="none" xmlns="http://www.w3.org/2000/svg">
<path d="M122.833 2.43464L4.55491 75.4568C2.35246 76.8166 0.895458 78.8372 0.502538 81.0769C0.109618 83.3165 0.812786 85.5927 2.45824 87.4077C2.62612 87.6342 2.83394 87.8389 3.07492 88.0154L31.6885 114.247C33.229 115.658 35.3781 116.521 37.6803 116.653C39.9824 116.785 42.257 116.177 44.0219 114.956L71.0322 96.0164C72.0117 95.3308 73.1462 94.8105 74.3708 94.4852C75.5954 94.16 76.8861 94.0361 78.169 94.1208C79.4519 94.2054 80.702 94.4969 81.8476 94.9786C82.9932 95.4603 84.012 96.1227 84.8457 96.9279C86.4437 98.4407 87.2814 100.396 87.189 102.397L84.969 154.859C84.8756 156.938 83.7867 158.902 81.9389 160.325C80.0911 161.747 77.634 162.513 75.1022 162.455C72.9157 162.402 70.8211 161.721 69.1822 160.531L56.1087 151.011C55.1373 150.305 54.0061 149.764 52.7797 149.418C51.5533 149.071 50.2557 148.927 48.9613 148.993C47.6669 149.059 46.4011 149.333 45.2361 149.801C44.0711 150.269 43.0298 150.921 42.1719 151.72L42.0486 151.821L35.6352 158.1C33.9626 159.757 33.1539 161.888 33.3848 164.031C33.6158 166.174 34.8678 168.156 36.8685 169.545C36.9919 169.646 37.2386 169.747 37.3619 169.849L119.256 218.868C120.373 219.561 121.645 220.066 123 220.354C124.355 220.643 125.766 220.709 127.153 220.549C128.539 220.389 129.873 220.006 131.079 219.422C132.285 218.838 133.338 218.065 134.179 217.146C135.546 215.62 136.281 213.774 136.276 211.88V50.3396C136.281 49.2612 136.026 48.1926 135.526 47.1955C135.025 46.1983 134.29 45.2924 133.361 44.5298C132.432 43.7672 131.329 43.1631 130.115 42.7523C128.901 42.3414 127.599 42.132 126.286 42.136C123.991 42.1037 121.758 42.7508 119.996 43.959L53.3954 88.7243C52.4983 89.3329 51.4634 89.7896 50.3503 90.0682C49.2373 90.3469 48.0681 90.4418 46.9102 90.3477C45.7522 90.2535 44.6284 89.9721 43.6035 89.5197C42.5786 89.0673 41.6729 88.4527 40.9386 87.7115C40.8152 87.6103 40.6919 87.4077 40.5686 87.3064C38.9994 85.4793 38.354 83.2237 38.768 81.0139C39.182 78.8041 40.6232 76.8121 42.7886 75.4568L136.523 17.7278C138.384 16.5683 139.688 14.9075 140.207 13.0369C140.726 11.1664 140.426 9.20555 139.359 7.49859L138.003 5.27045C136.818 3.31547 134.739 1.82449 132.221 1.12253C129.703 0.420575 126.949 0.564572 124.559 1.52313C123.819 1.92825 123.326 2.13081 122.833 2.43464Z" fill="#3718AE"/>
</svg>
